<svg width="20" height="19" viewBox="0 0 20 19" fill="none" xmlns="http://www.w3.org/2000/svg">
<path fill-rule="evenodd" clip-rule="evenodd" d="M0.832031 3.5C0.832031 2.77065 1.12176 2.07118 1.63749 1.55546C2.15321 1.03973 2.85269 0.75 3.58203 0.75H16.4154C17.1447 0.75 17.8442 1.03973 18.3599 1.55546C18.8756 2.07118 19.1654 2.77065 19.1654 3.5V12.6667C19.1654 13.396 18.8756 14.0955 18.3599 14.6112C17.8442 15.1269 17.1447 15.4167 16.4154 15.4167H6.02678C5.82844 15.4167 5.63545 15.481 5.47678 15.6L2.2987 17.9833C2.16251 18.0855 2.00057 18.1477 1.83102 18.163C1.66147 18.1783 1.49102 18.146 1.33875 18.0699C1.18649 17.9938 1.05843 17.8767 0.968935 17.7319C0.879436 17.5871 0.832031 17.4202 0.832031 17.25V3.5ZM5.41536 3.5C5.17225 3.5 4.93909 3.59658 4.76718 3.76849C4.59528 3.94039 4.4987 4.17355 4.4987 4.41667C4.4987 4.65978 4.59528 4.89294 4.76718 5.06485C4.93909 5.23676 5.17225 5.33333 5.41536 5.33333H14.582C14.8251 5.33333 15.0583 5.23676 15.2302 5.06485C15.4021 4.89294 15.4987 4.65978 15.4987 4.41667C15.4987 4.17355 15.4021 3.94039 15.2302 3.76849C15.0583 3.59658 14.8251 3.5 14.582 3.5H5.41536ZM5.41536 7.16667C5.17225 7.16667 4.93909 7.26324 4.76718 7.43515C4.59528 7.60706 4.4987 7.84022 4.4987 8.08333C4.4987 8.32645 4.59528 8.55961 4.76718 8.73151C4.93909 8.90342 5.17225 9 5.41536 9H14.582C14.8251 9 15.0583 8.90342 15.2302 8.73151C15.4021 8.55961 15.4987 8.32645 15.4987 8.08333C15.4987 7.84022 15.4021 7.60706 15.2302 7.43515C15.0583 7.26324 14.8251 7.16667 14.582 7.16667H5.41536ZM5.41536 10.8333C5.17225 10.8333 4.93909 10.9299 4.76718 11.1018C4.59528 11.2737 4.4987 11.5069 4.4987 11.75C4.4987 11.9931 4.59528 12.2263 4.76718 12.3982C4.93909 12.5701 5.17225 12.6667 5.41536 12.6667H9.08203C9.32515 12.6667 9.5583 12.5701 9.73021 12.3982C9.90212 12.2263 9.9987 11.9931 9.9987 11.75C9.9987 11.5069 9.90212 11.2737 9.73021 11.1018C9.5583 10.9299 9.32515 10.8333 9.08203 10.8333H5.41536Z" fill="#FF5A36"/>
</svg>
