<svg width="26" height="26" viewBox="0 0 26 26" fill="none" xmlns="http://www.w3.org/2000/svg">
<g clip-path="url(#clip0_782_6011)">
<path d="M13.0009 0C9.44397 0 6.54883 2.69734 6.54883 6.01359C6.54883 9.32985 9.44282 12.0272 13.0009 12.0272C16.5589 12.0272 19.4529 9.32985 19.4529 6.01359C19.4529 2.69734 16.5578 0 13.0009 0ZM13.0009 9.9584C10.6664 9.9584 8.76844 8.18838 8.76844 6.01359C8.76844 3.8388 10.6675 2.06878 13.0009 2.06878C15.3342 2.06878 17.2333 3.8388 17.2333 6.01359C17.2333 8.18838 15.3342 9.9584 13.0009 9.9584Z" fill="#10BED2"/>
<path d="M23.9917 18.9307C21.6722 14.9516 17.8706 12.8496 13.0005 12.8496C6.78514 12.8496 3.56832 16.1584 1.9645 18.9349C0.271069 21.8646 0.0137231 24.7644 0.00338328 24.8864C-0.0207429 25.1734 0.0849528 25.4572 0.295195 25.6681C0.505438 25.8791 0.800697 26.0001 1.10974 26.0001H24.8913C25.2026 26.0001 25.499 25.878 25.7093 25.6649C25.9195 25.4518 26.0241 25.1648 25.9965 24.8768C25.985 24.7547 25.6978 21.8582 23.9917 18.9317V18.9307ZM2.39762 23.9323C2.60672 22.9451 3.04214 21.4288 3.91757 19.9147C5.83388 16.5985 8.88987 14.9173 13.0005 14.9173C17.1112 14.9173 20.0729 16.5813 22.0099 19.8633C22.9072 21.3839 23.3644 22.9269 23.5885 23.9323H2.39762Z" fill="#10BED2"/>
</g>
<defs>
<clipPath id="clip0_782_6011">
<rect width="26" height="26" fill="white"/>
</clipPath>
</defs>
</svg>
