<svg width="34" height="34" viewBox="0 0 34 34" fill="none" xmlns="http://www.w3.org/2000/svg">
<path fill-rule="evenodd" clip-rule="evenodd" d="M0.0481484 17.048C0.0353787 12.5521 1.80913 8.23529 4.97918 5.04717C8.14924 1.85905 12.4559 0.0608127 16.9519 0.048043C21.4478 0.0352732 25.7646 1.80902 28.9527 4.97908C32.1408 8.14914 33.9391 12.4558 33.9519 16.9517C33.9646 21.4477 32.1909 25.7645 29.0208 28.9526C25.8508 32.1407 21.5441 33.939 17.0481 33.9517C12.5522 33.9645 8.2354 32.1908 5.04728 29.0207C1.85916 25.8506 0.0609182 21.544 0.0481484 17.048ZM16.9579 2.16702C14.1646 2.17511 11.4303 2.97176 9.06986 4.46529C6.70938 5.95882 4.81859 8.08853 3.61513 10.6093C2.41167 13.13 1.94444 15.9394 2.26723 18.714C2.59002 21.4885 3.6897 24.1156 5.43971 26.2927C6.9373 23.8644 10.2419 21.2571 17.012 21.2379C23.7822 21.2186 27.0994 23.805 28.6129 26.2269C30.3505 24.0399 31.4352 21.4066 31.7423 18.6302C32.0493 15.8539 31.5661 13.0472 30.3484 10.5333C29.1306 8.01947 27.2277 5.90054 24.8588 4.42045C22.4899 2.94035 19.7512 2.15924 16.9579 2.16702Z" fill="#242424"/>
<path d="M23.3452 12.7442C23.35 14.4301 22.6849 16.049 21.4961 17.2445C20.3073 18.44 18.6923 19.1144 17.0063 19.1192C15.3204 19.124 13.7016 18.4588 12.506 17.27C11.3105 16.0813 10.6361 14.4662 10.6313 12.7803C10.6265 11.0943 11.2917 9.4755 12.4805 8.27996C13.6692 7.08441 15.2843 6.41007 16.9702 6.40528C18.6562 6.4005 20.275 7.06565 21.4706 8.25442C22.6661 9.44319 23.3404 11.0582 23.3452 12.7442Z" fill="#242424"/>
</svg>
