<svg width="45" height="45" viewBox="0 0 45 45" fill="none" xmlns="http://www.w3.org/2000/svg">
<circle cx="22.5" cy="22.5" r="22.5" fill="white"/>
<path d="M28.4908 20.4403C28.4908 16.8639 25.5924 13.9648 22.0169 13.9648C18.4414 13.9648 15.543 16.8639 15.543 20.4403C15.543 22.8369 16.8452 24.9302 18.7805 26.0497V27.9971H25.2544V26.0497C27.1898 24.9302 28.492 22.8369 28.492 20.4403H28.4908Z" fill="#FF5A36"/>
<path d="M24.5854 29.8474H19.4461C19.2539 29.8474 19.0977 29.6911 19.0977 29.4989C19.0977 29.3067 19.2539 29.1504 19.4461 29.1504H24.5854C24.7775 29.1504 24.9338 29.3067 24.9338 29.4989C24.9338 29.6911 24.7775 29.8474 24.5854 29.8474Z" fill="#FF5A36"/>
<path d="M23.5868 31.2165H20.45C20.2578 31.2165 20.1016 31.0602 20.1016 30.868C20.1016 30.6758 20.2578 30.5195 20.45 30.5195H23.5868C23.779 30.5195 23.9352 30.6758 23.9352 30.868C23.9352 31.0602 23.779 31.2165 23.5868 31.2165Z" fill="#FF5A36"/>
<path d="M23.1491 31.1895C23.1491 31.7846 22.6675 32.2662 22.0726 32.2662C21.4776 32.2662 20.9961 31.7846 20.9961 31.1895H23.1491Z" fill="#FF5A36"/>
</svg>
