<svg width="29" height="29" viewBox="0 0 29 29" fill="none" xmlns="http://www.w3.org/2000/svg">
<circle cx="14.5" cy="14.5" r="14.5" fill="#FF5A36"/>
<path d="M18.3598 13.1731C18.3598 10.8683 16.4919 9 14.1877 9C11.8835 9 10.0156 10.8683 10.0156 13.1731C10.0156 14.7175 10.8548 16.0665 12.102 16.788V18.043H16.2741V16.788C17.5213 16.0665 18.3605 14.7175 18.3605 13.1731H18.3598Z" fill="white"/>
<path d="M15.8451 19.2353H12.5331C12.4093 19.2353 12.3086 19.1346 12.3086 19.0107C12.3086 18.8869 12.4093 18.7861 12.5331 18.7861H15.8451C15.969 18.7861 16.0697 18.8869 16.0697 19.0107C16.0697 19.1346 15.969 19.2353 15.8451 19.2353Z" fill="white"/>
<path d="M15.1992 20.1171H13.1777C13.0538 20.1171 12.9531 20.0164 12.9531 19.8926C12.9531 19.7687 13.0538 19.668 13.1777 19.668H15.1992C15.323 19.668 15.4237 19.7687 15.4237 19.8926C15.4237 20.0164 15.323 20.1171 15.1992 20.1171Z" fill="white"/>
<path d="M14.9187 20.1001C14.9187 20.4836 14.6084 20.794 14.225 20.794C13.8416 20.794 13.5312 20.4836 13.5312 20.1001H14.9187Z" fill="white"/>
</svg>
