<svg width="19" height="19" viewBox="0 0 19 19" fill="none" xmlns="http://www.w3.org/2000/svg">
<path d="M9.50056 18.7857C8.24747 18.7857 7.03122 18.54 5.88582 18.0556C4.77996 17.5878 3.78708 16.9184 2.93459 16.0659C2.08211 15.2134 1.41267 14.2205 0.944954 13.1147C0.46049 11.9693 0.214844 10.7532 0.214844 9.49995C0.214844 8.24673 0.46049 7.03061 0.944954 5.8852C1.41267 4.77935 2.08211 3.78646 2.93459 2.93398C3.78708 2.0815 4.77996 1.41206 5.88582 0.944466C7.03122 0.460001 8.24734 0.214355 9.50056 0.214355C10.7538 0.214355 11.9699 0.460001 13.1153 0.944466C14.2212 1.41218 15.214 2.08162 16.0665 2.93398C16.919 3.78646 17.5883 4.77935 18.0562 5.8852C18.5406 7.03061 18.7863 8.24673 18.7863 9.49995C18.7863 10.7532 18.5406 11.9693 18.0562 13.1147C17.5885 14.2205 16.919 15.2134 16.0665 16.0659C15.214 16.9184 14.2212 17.5878 13.1153 18.0556C11.9699 18.54 10.7538 18.7857 9.50056 18.7857Z" fill="#242424"/>
<path d="M9.49994 19C8.21799 19 6.97366 18.7487 5.80172 18.2529C4.67036 17.7743 3.65454 17.0896 2.78235 16.2175C1.91029 15.3455 1.2254 14.3296 0.746985 13.1981C0.251314 12.0262 0 10.782 0 9.49994C0 8.21786 0.251314 6.97366 0.747114 5.80172C1.22565 4.67036 1.91042 3.65454 2.78248 2.78235C3.65454 1.91029 4.67049 1.22539 5.80185 0.746985C6.97379 0.251314 8.21799 0 9.49994 0C10.7819 0 12.0262 0.251314 13.1981 0.747114C14.3295 1.22565 15.3453 1.91042 16.2175 2.78248C17.0896 3.65454 17.7745 4.67036 18.2529 5.80185C18.7486 6.97379 19 8.21812 19 9.50006C19 10.782 18.7487 12.0263 18.2529 13.1983C17.7743 14.3296 17.0896 15.3456 16.2175 16.2176C15.3455 17.0897 14.3295 17.7746 13.1981 18.253C12.0262 18.7487 10.782 19.0001 9.49994 19.0001V19ZM9.49994 0.428689C8.2757 0.428689 7.08753 0.668667 5.96879 1.14192C4.88857 1.59882 3.91848 2.2528 3.08558 3.08571C2.25268 3.91861 1.59869 4.88857 1.1418 5.96892C0.668538 7.08779 0.42856 8.27583 0.42856 9.50006C0.42856 10.7243 0.668538 11.9125 1.1418 13.0312C1.59869 14.1116 2.25268 15.0815 3.08558 15.9144C3.91848 16.7473 4.88844 17.4013 5.96879 17.8582C7.08766 18.3315 8.2757 18.5714 9.49994 18.5714C10.7242 18.5714 11.9123 18.3315 13.0311 17.8582C14.1113 17.4013 15.0814 16.7473 15.9143 15.9144C16.7472 15.0815 17.401 14.1116 17.8581 13.0312C18.3313 11.9123 18.5713 10.7243 18.5713 9.50006C18.5713 8.27583 18.3313 7.08766 17.8581 5.96892C17.4012 4.88857 16.7472 3.91861 15.9143 3.08571C15.0814 2.2528 14.1114 1.59882 13.0311 1.14192C11.9122 0.668667 10.7242 0.428689 9.49994 0.428689Z" fill="#242424"/>
<path d="M9.49993 17.7987C14.0832 17.7987 17.7987 14.0832 17.7987 9.49993C17.7987 4.91665 14.0832 1.20117 9.49993 1.20117C4.91665 1.20117 1.20117 4.91665 1.20117 9.49993C1.20117 14.0832 4.91665 17.7987 9.49993 17.7987Z" fill="white"/>
<path d="M9.48368 3.88052C9.24692 3.88052 9.05859 3.68859 9.05859 3.45183V2.48728C9.05859 2.25052 9.24692 2.05859 9.48368 2.05859C9.72043 2.05859 9.90876 2.25052 9.90876 2.48728V3.45183C9.90876 3.68859 9.72043 3.88052 9.48368 3.88052Z" fill="#242424"/>
<path d="M6.47179 4.68353C6.32365 4.68353 6.17951 4.60663 6.10016 4.46906L5.62588 3.64749C5.5075 3.44242 5.5777 3.18029 5.78277 3.06191C5.98784 2.94353 6.24997 3.01373 6.36835 3.2188L6.84264 4.04037C6.96102 4.24544 6.89082 4.50758 6.68575 4.62595C6.61825 4.66498 6.54457 4.6834 6.47179 4.6834V4.68353Z" fill="#242424"/>
<path d="M4.25384 6.90107C4.18106 6.90107 4.10738 6.88252 4.03988 6.84362L3.21832 6.36933C3.01325 6.25095 2.94304 5.98882 3.06142 5.78375C3.1798 5.57868 3.44206 5.50847 3.647 5.62685L4.46857 6.10114C4.67364 6.21952 4.74384 6.48165 4.62547 6.68672C4.54612 6.82429 4.40198 6.9012 4.25384 6.9012V6.90107Z" fill="#242424"/>
<path d="M3.45378 9.92487H2.48924C2.25248 9.92487 2.06055 9.73655 2.06055 9.49979C2.06055 9.26303 2.25248 9.07471 2.48924 9.07471H3.45378C3.69054 9.07471 3.88247 9.26303 3.88247 9.49979C3.88247 9.73655 3.69054 9.92487 3.45378 9.92487Z" fill="#242424"/>
<path d="M3.43305 13.4271C3.28491 13.4271 3.14077 13.3502 3.06142 13.2126C2.94304 13.0075 3.01325 12.7454 3.21832 12.627L4.03988 12.1527C4.24495 12.0344 4.50709 12.1046 4.62547 12.3096C4.74384 12.5147 4.67364 12.7768 4.46857 12.8952L3.647 13.3695C3.57951 13.4085 3.50583 13.4269 3.43305 13.4269V13.4271Z" fill="#242424"/>
<path d="M5.99477 15.9915C5.922 15.9915 5.84831 15.973 5.78082 15.9341C5.57575 15.8157 5.50554 15.5535 5.62392 15.3485L6.09821 14.5269C6.21659 14.3218 6.47872 14.2516 6.68379 14.37C6.88886 14.4884 6.95907 14.7505 6.84069 14.9556L6.3664 15.7772C6.28705 15.9147 6.14291 15.9916 5.99477 15.9916V15.9915Z" fill="#242424"/>
<path d="M9.48368 16.9337C9.24692 16.9337 9.05859 16.7418 9.05859 16.5051V15.5405C9.05859 15.3037 9.24692 15.1118 9.48368 15.1118C9.72043 15.1118 9.90876 15.3037 9.90876 15.5405V16.5051C9.90876 16.7418 9.72043 16.9337 9.48368 16.9337Z" fill="#242424"/>
<path d="M12.9991 15.9897C12.851 15.9897 12.7069 15.9128 12.6275 15.7752L12.1532 14.9536C12.0348 14.7486 12.105 14.4864 12.3101 14.3681C12.5152 14.2497 12.7773 14.3199 12.8957 14.525L13.37 15.3465C13.4884 15.5516 13.4182 15.8137 13.2131 15.9321C13.1456 15.9711 13.0719 15.9896 12.9991 15.9896V15.9897Z" fill="#242424"/>
<path d="M15.5605 13.4289C15.4877 13.4289 15.414 13.4104 15.3465 13.3714L14.525 12.8972C14.3199 12.7788 14.2497 12.5166 14.3681 12.3116C14.4864 12.1065 14.7486 12.0363 14.9536 12.1547L15.7752 12.629C15.9803 12.7474 16.0505 13.0095 15.9321 13.2146C15.8528 13.3521 15.7086 13.429 15.5605 13.429V13.4289Z" fill="#242424"/>
<path d="M16.5085 9.92487H15.5439C15.3072 9.92487 15.1152 9.73655 15.1152 9.49979C15.1152 9.26303 15.3072 9.07471 15.5439 9.07471H16.5085C16.7452 9.07471 16.9372 9.26303 16.9372 9.49979C16.9372 9.73655 16.7452 9.92487 16.5085 9.92487Z" fill="#242424"/>
<path d="M14.7397 6.89924C14.5916 6.89924 14.4474 6.82234 14.3681 6.68477C14.2497 6.4797 14.3199 6.21757 14.525 6.09919L15.3465 5.6249C15.5516 5.50652 15.8137 5.57672 15.9321 5.78179C16.0505 5.98686 15.9803 6.249 15.7752 6.36737L14.9536 6.84166C14.8861 6.88069 14.8125 6.89911 14.7397 6.89911V6.89924Z" fill="#242424"/>
<path d="M12.5221 4.68536C12.4493 4.68536 12.3757 4.66681 12.3082 4.62791C12.1031 4.50953 12.0329 4.24739 12.1513 4.04232L12.6256 3.22076C12.7439 3.01569 13.0061 2.94548 13.2111 3.06386C13.4162 3.18224 13.4864 3.44438 13.368 3.64945L12.8937 4.47101C12.8144 4.60859 12.6703 4.68549 12.5221 4.68549V4.68536Z" fill="#242424"/>
<path d="M12.819 9.92511H12.8186L9.49243 9.92343C9.25581 9.92317 9.05859 9.73318 9.05859 9.49655V5.145C9.05859 4.90824 9.24692 4.71631 9.48368 4.71631C9.72043 4.71631 9.90876 4.90824 9.90876 5.145V9.06824L12.8103 9.07121C13.047 9.07147 13.2433 9.26172 13.2431 9.49848C13.2428 9.73511 13.0555 9.92498 12.819 9.92498V9.92511Z" fill="#242424"/>
<path d="M10.1059 10.0384C10.4407 9.70356 10.4407 9.1607 10.1059 8.82587C9.77105 8.49104 9.22819 8.49105 8.89337 8.82587C8.55854 9.1607 8.55854 9.70356 8.89337 10.0384C9.22819 10.3732 9.77105 10.3732 10.1059 10.0384Z" fill="#242424"/>
</svg>
