<svg width="142" height="142" viewBox="0 0 142 142" fill="none" xmlns="http://www.w3.org/2000/svg">
<path d="M106.066 106.066C125.592 86.5398 125.592 54.8816 106.066 35.3554C86.5398 15.8291 54.8816 15.8291 35.3553 35.3554C15.8291 54.8816 15.8291 86.5398 35.3553 106.066C54.8816 125.592 86.5398 125.592 106.066 106.066Z" fill="#292737"/>
<path d="M88.9286 45.712H54.8792C53.7366 45.712 52.8086 46.6387 52.8086 47.7826V59.9428C52.8086 61.0854 53.7353 62.0134 54.8792 62.0134C56.0231 62.0134 56.9498 61.0867 56.9498 59.9428V49.8519H86.8594V93.3815H56.9498V83.2905C56.9498 82.148 56.0231 81.22 54.8792 81.22C53.7353 81.22 52.8086 82.1467 52.8086 83.2905V95.4508C52.8086 96.5934 53.7353 97.5214 54.8792 97.5214H88.9286C90.0712 97.5214 90.9992 96.5947 90.9992 95.4508V47.7813C90.9992 46.6387 90.0725 45.7107 88.9286 45.7107V45.712Z" fill="white"/>
<path d="M67.439 77.5276C66.6308 78.3358 66.6308 79.6469 67.439 80.4551C67.8432 80.8592 68.3723 81.0619 68.9028 81.0619C69.432 81.0619 69.9624 80.8592 70.3666 80.4551L77.7459 73.0758C77.7933 73.0284 77.8393 72.977 77.8815 72.9257C77.892 72.9125 77.9012 72.8994 77.9104 72.8862C77.942 72.8454 77.9736 72.8059 78.0013 72.7625C78.0092 72.7506 78.0157 72.7375 78.0236 72.7256C78.0526 72.6809 78.0802 72.6361 78.1052 72.5887C78.1105 72.5795 78.1131 72.5703 78.1184 72.5611C78.1447 72.5097 78.1697 72.4584 78.1921 72.4044C78.1948 72.3992 78.1961 72.3926 78.1987 72.386C78.2211 72.3294 78.2421 72.2728 78.2606 72.2136C78.2619 72.207 78.2632 72.2004 78.2658 72.1938C78.283 72.1359 78.2987 72.078 78.3106 72.0174C78.3145 72.0016 78.3159 71.9845 78.3185 71.9674C78.3277 71.9174 78.3356 71.8674 78.3409 71.816C78.3475 71.7476 78.3514 71.6791 78.3514 71.6094C78.3514 71.5396 78.3475 71.4712 78.3409 71.4027C78.3356 71.3514 78.3264 71.3013 78.3185 71.2513C78.3159 71.2355 78.3145 71.2184 78.3106 71.2013C78.2987 71.1408 78.283 71.0828 78.2658 71.0249C78.2645 71.0183 78.2632 71.0118 78.2606 71.0052C78.2421 70.9459 78.2211 70.8893 78.1987 70.8327C78.1961 70.8275 78.1948 70.8209 78.1921 70.8143C78.1697 70.7603 78.1447 70.709 78.1184 70.6577C78.1145 70.6484 78.1105 70.6392 78.1052 70.63C78.0802 70.5826 78.0526 70.5379 78.0236 70.4931C78.0157 70.4813 78.0092 70.4681 78.0013 70.4563C77.9723 70.4141 77.942 70.3733 77.9104 70.3325C77.8999 70.3194 77.8907 70.3062 77.8815 70.293C77.838 70.2404 77.7933 70.1904 77.7459 70.143L70.3666 62.7636C69.5583 61.9554 68.2473 61.9554 67.439 62.7636C66.6308 63.5719 66.6308 64.8829 67.439 65.6912L71.2853 69.5375H48.0706C46.928 69.5375 46 70.4642 46 71.608C46 72.7519 46.9267 73.6786 48.0706 73.6786H71.2853L67.439 77.5249V77.5276Z" fill="white"/>
</svg>
