<svg width="24" height="30" viewBox="0 0 24 30" fill="none" xmlns="http://www.w3.org/2000/svg">
<path d="M18.3621 11.4062C11.5271 7.6482 12.9295 1.5 12.9295 1.5L8.89814 5.59959C4.86677 9.69918 12.4042 17.7258 7.14511 18.5804C1.88722 19.4339 2.06798 13.0836 2.06798 13.0836C1.36191 14.7492 0.922744 16.7872 1.01131 19.2637C1.36191 29.1699 12.0536 28.9985 12.0536 28.9985C25.5502 29.1687 25.1995 15.1641 18.3633 11.4062H18.3621Z" fill="#FF0000" stroke="#FF0000" stroke-width="1.5" stroke-linecap="round" stroke-linejoin="round"/>
<path d="M9.03906 25.2725C9.03906 25.2725 12.5451 24.9723 12.5451 21.9697C12.5451 18.9671 11.1427 18.0663 13.597 15.2139C13.597 15.2139 14.2096 17.9753 16.1543 19.8395C17.9061 21.5181 17.2777 27.9748 9.03906 25.2725Z" fill="white" stroke="white" stroke-width="1.5" stroke-linecap="round" stroke-linejoin="round"/>
</svg>
