<svg width="50" height="50" viewBox="0 0 50 50" fill="none" xmlns="http://www.w3.org/2000/svg">
<path fill-rule="evenodd" clip-rule="evenodd" d="M0.0708065 25.0708C0.0520275 18.4592 2.66048 12.1109 7.32233 7.42245C11.9842 2.73405 18.3176 0.0895741 24.9292 0.070795C31.5408 0.052016 37.8891 2.66047 42.5775 7.32232C47.2659 11.9842 49.9104 18.3175 49.9292 24.9292C49.948 31.5408 47.3395 37.8891 42.6777 42.5775C38.0158 47.2659 31.6824 49.9104 25.0708 49.9292C18.4592 49.948 12.1109 47.3395 7.42247 42.6777C2.73406 38.0158 0.0895856 31.6824 0.0708065 25.0708ZM24.938 3.18694C20.8303 3.19883 16.8093 4.37038 13.338 6.56675C9.86673 8.76312 7.08617 11.895 5.31637 15.602C3.54657 19.309 2.85947 23.4404 3.33416 27.5207C3.80885 31.6009 5.42603 35.4643 7.99957 38.666C10.2019 35.0948 15.0616 31.2606 25.0177 31.2323C34.9738 31.204 39.8521 35.0075 42.0778 38.5692C44.6331 35.3529 46.2283 31.4805 46.6798 27.3976C47.1313 23.3147 46.4208 19.1872 44.6299 15.4904C42.8391 11.7935 40.0408 8.67742 36.5571 6.5008C33.0733 4.32418 29.0458 3.1755 24.938 3.18694Z" fill="#242424"/>
<path d="M34.3289 18.7411C34.336 21.2205 33.3578 23.6011 31.6096 25.3593C29.8614 27.1174 27.4864 28.1091 25.007 28.1161C22.5277 28.1232 20.147 27.145 18.3889 25.3968C16.6307 23.6486 15.6391 21.2736 15.632 18.7942C15.625 16.3149 16.6031 13.9343 18.3513 12.1761C20.0995 10.418 22.4746 9.42629 24.9539 9.41925C27.4333 9.41221 29.8139 10.3904 31.572 12.1386C33.3302 13.8868 34.3219 16.2618 34.3289 18.7411Z" fill="#242424"/>
</svg>
