<svg width="70" height="26" viewBox="0 0 70 26" fill="none" xmlns="http://www.w3.org/2000/svg">
<path d="M38.4916 13.8423V20.626H35.8535V8.09493H38.4916V10.3797C38.8685 9.61028 39.4338 9.00571 40.1876 8.56603C40.957 8.12634 41.7814 7.90649 42.6608 7.90649C44.6394 7.90649 45.982 8.72306 46.6887 10.3562C47.9292 8.72306 49.476 7.90649 51.3289 7.90649C52.7422 7.90649 53.8807 8.33833 54.7444 9.202C55.6237 10.0657 56.0634 11.3141 56.0634 12.9472V20.626H53.4253V13.7481C53.4253 11.4397 52.4674 10.2855 50.5516 10.2855C49.6566 10.2855 48.8714 10.576 48.1962 11.157C47.5366 11.7224 47.1912 12.5546 47.1598 13.6538V20.626H44.5216V13.7481C44.5216 12.5546 44.3096 11.6831 43.8857 11.1335C43.4617 10.5682 42.7943 10.2855 41.8835 10.2855C40.9727 10.2855 40.1797 10.5917 39.5045 11.2041C38.8293 11.8009 38.4916 12.6802 38.4916 13.8423Z" fill="#242424"/>
<path d="M34.1303 15.5147H24.308C24.3709 16.4254 24.787 17.1635 25.5564 17.7288C26.3259 18.2784 27.2053 18.5532 28.1946 18.5532C29.7649 18.5532 30.9583 18.0586 31.7749 17.0693L33.2824 18.7181C31.9319 20.1157 30.1732 20.8145 28.0061 20.8145C26.2474 20.8145 24.7477 20.2334 23.5072 19.0714C22.2823 17.8937 21.6699 16.3234 21.6699 14.3605C21.6699 12.3819 22.298 10.8116 23.5543 9.64954C24.8105 8.48751 26.2866 7.90649 27.9826 7.90649C29.6942 7.90649 31.1468 8.4247 32.3402 9.4611C33.5336 10.4818 34.1303 11.8951 34.1303 13.7009V15.5147ZM24.308 13.4418H31.4922C31.4922 12.3897 31.1625 11.581 30.5029 11.0157C29.8434 10.4504 29.0268 10.1677 28.0532 10.1677C27.0953 10.1677 26.2317 10.4661 25.4622 11.0628C24.6928 11.6438 24.308 12.4368 24.308 13.4418Z" fill="#242424"/>
<path d="M11.2527 4.16138C14.2049 4.16138 16.474 4.88372 18.06 6.32841C19.646 7.75739 20.4391 9.75169 20.4391 12.3113C20.4391 14.8709 19.6696 16.8966 18.1307 18.3884C16.5918 19.8802 14.2363 20.6261 11.0643 20.6261H5.59961V4.16138H11.2527ZM17.636 12.382C17.636 8.61321 15.4769 6.72884 11.1585 6.72884H8.37906V18.0115H11.4647C13.459 18.0115 14.9822 17.5404 16.0343 16.5982C17.1021 15.6404 17.636 14.2349 17.636 12.382Z" fill="#242424"/>
<path fill-rule="evenodd" clip-rule="evenodd" d="M60.0565 25.6191C60.0811 25.6195 60.1058 25.6196 60.1305 25.6196C60.9471 25.6196 61.693 25.3841 62.3682 24.913C63.0435 24.4419 63.5617 23.7981 63.9229 22.9815L70 8.09497H67.1734L63.4282 17.3284L59.683 8.09497H56.8564C60.2326 16.4647 61.9207 20.7595 61.9207 20.9794C61.9207 21.4819 61.7323 21.9451 61.3554 22.3691C61.0225 22.7599 60.5895 22.9706 60.0565 23.0012V25.6191Z" fill="#242424"/>
<rect y="22.9814" width="60.0644" height="2.63812" fill="#242424"/>
<rect x="60.0645" y="22.9814" width="0.392578" height="0.392578" fill="#242424"/>
<path d="M3.5332 20.626H0V4.17334H3.5332V20.626Z" fill="#FF5A36"/>
<path fill-rule="evenodd" clip-rule="evenodd" d="M2.43114 1.37207C2.23247 1.42987 2.01011 1.46289 1.76658 1.46289C1.51931 1.46289 1.29385 1.42885 1.09285 1.36938L1.76134 0L2.43114 1.37207ZM0.872503 1.82076L0 3.60805H3.52269L2.65164 1.82375C2.37965 1.91334 2.08056 1.96289 1.76658 1.96289C1.44914 1.96289 1.1469 1.91224 0.872503 1.82076Z" fill="#FF5A36"/>
</svg>
