<svg width="39" height="51" viewBox="0 0 39 51" fill="none" xmlns="http://www.w3.org/2000/svg">
<path fill-rule="evenodd" clip-rule="evenodd" d="M26.7156 0L26.5896 0.12599L39 12.5364V46.513C39 48.7275 37.2048 50.5227 34.9902 50.5227H4.00974C1.79522 50.5227 0 48.7275 0 46.513V4.00974C0 1.79522 1.79522 0 4.00974 0H26.7156Z" fill="#F9C148"/>
<path fill-rule="evenodd" clip-rule="evenodd" d="M1.87109 49.9068L32.2712 5.80981L38.9978 12.5364V46.513C38.9978 48.7275 37.2025 50.5227 34.988 50.5227H4.00754C3.2222 50.5227 2.4896 50.297 1.87109 49.9068Z" fill="#E8B43E"/>
<path d="M14.5964 26.55C13.8693 26.55 13.3048 26.4901 12.9027 26.3704C12.5092 26.2506 12.2355 26.0624 12.0815 25.8058C11.9275 25.5492 11.8506 25.2156 11.8506 24.805V22.829C11.8506 22.5553 11.7864 22.3371 11.6581 22.1746C11.5383 22.0121 11.3587 21.8966 11.1192 21.8282C10.8882 21.7512 10.5974 21.7127 10.2467 21.7127V20.2114C10.5974 20.2114 10.8882 20.1772 11.1192 20.1088C11.3587 20.0318 11.5383 19.912 11.6581 19.7495C11.7864 19.5784 11.8506 19.3603 11.8506 19.0951V17.1063C11.8506 16.7983 11.8891 16.5332 11.966 16.3108C12.0516 16.0884 12.197 15.9087 12.4023 15.7719C12.6076 15.635 12.8856 15.5323 13.2363 15.4639C13.5956 15.3955 14.049 15.3613 14.5964 15.3613V16.7727C14.374 16.7727 14.1816 16.7983 14.019 16.8497C13.8565 16.901 13.7282 16.9908 13.6341 17.1191C13.5486 17.2389 13.5058 17.4185 13.5058 17.658V19.5314C13.5058 19.9249 13.3817 20.2371 13.1337 20.4681C12.8856 20.699 12.5221 20.8487 12.043 20.9171V20.9941C12.5221 21.0626 12.8856 21.2123 13.1337 21.4432C13.3817 21.6742 13.5058 21.9864 13.5058 22.3799V24.2533C13.5058 24.4928 13.5486 24.6724 13.6341 24.7922C13.7282 24.9205 13.8565 25.006 14.019 25.0488C14.1816 25.1001 14.374 25.13 14.5964 25.1386V26.55ZM20.5444 23.1754C20.4674 23.4748 20.369 23.7999 20.2493 24.1506C20.1295 24.4928 20.0012 24.8349 19.8643 25.1771C19.7275 25.5278 19.5863 25.8614 19.4409 26.1779H18.068C18.1278 25.9213 18.1877 25.6561 18.2476 25.3824C18.3075 25.1087 18.3631 24.8307 18.4144 24.5484C18.4743 24.2746 18.5256 24.0095 18.5684 23.7528C18.6197 23.4962 18.6625 23.2567 18.6967 23.0343H20.4546L20.5444 23.1754ZM18.4016 18.4536C18.4016 18.0601 18.5085 17.7863 18.7224 17.6324C18.9362 17.4698 19.1971 17.3886 19.5051 17.3886C19.8044 17.3886 20.0611 17.4698 20.2749 17.6324C20.4888 17.7863 20.5957 18.0601 20.5957 18.4536C20.5957 18.8299 20.4888 19.1037 20.2749 19.2748C20.0611 19.4373 19.8044 19.5186 19.5051 19.5186C19.1971 19.5186 18.9362 19.4373 18.7224 19.2748C18.5085 19.1037 18.4016 18.8299 18.4016 18.4536ZM24.4086 25.1386C24.631 25.13 24.8234 25.1001 24.986 25.0488C25.1485 25.006 25.2725 24.9205 25.3581 24.7922C25.4522 24.6724 25.4992 24.4928 25.4992 24.2533V22.3799C25.4992 21.9864 25.6232 21.6742 25.8713 21.4432C26.1279 21.2123 26.4915 21.0626 26.962 20.9941V20.9171C26.4915 20.8487 26.1279 20.699 25.8713 20.4681C25.6232 20.2371 25.4992 19.9249 25.4992 19.5314V17.658C25.4992 17.4185 25.4522 17.2389 25.3581 17.1191C25.2725 16.9908 25.1485 16.901 24.986 16.8497C24.8234 16.7983 24.631 16.7727 24.4086 16.7727V15.3613C24.956 15.3613 25.4051 15.3955 25.7558 15.4639C26.1151 15.5323 26.3974 15.635 26.6027 15.7719C26.808 15.9087 26.9491 16.0884 27.0261 16.3108C27.1117 16.5332 27.1544 16.7983 27.1544 17.1063V19.0951C27.1544 19.3603 27.2143 19.5784 27.3341 19.7495C27.4624 19.912 27.6463 20.0318 27.8858 20.1088C28.1253 20.1772 28.4162 20.2114 28.7583 20.2114V21.7127C28.4162 21.7127 28.1253 21.7512 27.8858 21.8282C27.6463 21.8966 27.4624 22.0121 27.3341 22.1746C27.2143 22.3371 27.1544 22.5553 27.1544 22.829V24.805C27.1544 25.2156 27.0774 25.5492 26.9235 25.8058C26.7695 26.0624 26.4958 26.2506 26.1023 26.3704C25.7088 26.4901 25.1442 26.55 24.4086 26.55V25.1386Z" fill="white"/>
<path d="M4.64385 40.1025C4.4733 40.1025 4.32334 40.0907 4.19395 40.0672C4.06457 40.0496 3.95284 40.029 3.85874 40.0055V38.894C3.95284 38.9175 4.05281 38.9381 4.15867 38.9557C4.25865 38.9734 4.36744 38.9822 4.48506 38.9822C4.63797 38.9822 4.77617 38.9528 4.89967 38.894C5.02905 38.8352 5.12903 38.7234 5.1996 38.5587C5.27017 38.3941 5.30545 38.1588 5.30545 37.853V31.9515H6.63749V37.8442C6.63749 38.3853 6.55222 38.8205 6.38167 39.1498C6.217 39.485 5.9847 39.7261 5.68478 39.8731C5.38485 40.026 5.03787 40.1025 4.64385 40.1025ZM13.9421 35.0919C13.9421 35.5624 13.8862 35.9917 13.7745 36.3799C13.6628 36.768 13.4922 37.1062 13.2629 37.3943C13.0335 37.6766 12.7424 37.8971 12.3895 38.0559L13.9068 39.7496H12.1955L11.0399 38.3382C11.0222 38.3382 11.0046 38.3382 10.9869 38.3382C10.9752 38.3382 10.9605 38.3382 10.9428 38.3382C10.4312 38.3382 9.98423 38.2618 9.60197 38.1089C9.22559 37.9501 8.9139 37.7295 8.6669 37.4473C8.42578 37.1591 8.24347 36.815 8.11997 36.4151C8.00235 36.0152 7.94354 35.5712 7.94354 35.0831C7.94354 34.4303 8.0494 33.8628 8.26111 33.3806C8.47871 32.8983 8.80804 32.5249 9.24911 32.2603C9.69606 31.9897 10.2636 31.8545 10.9516 31.8545C11.6338 31.8545 12.1955 31.9897 12.6365 32.2603C13.0776 32.5249 13.404 32.9013 13.6157 33.3894C13.8333 33.8716 13.9421 34.4391 13.9421 35.0919ZM9.34615 35.0919C9.34615 35.533 9.40202 35.9123 9.51375 36.2299C9.62549 36.5475 9.79898 36.7915 10.0342 36.9621C10.2695 37.1326 10.5723 37.2179 10.9428 37.2179C11.3251 37.2179 11.6309 37.1326 11.8603 36.9621C12.0955 36.7915 12.266 36.5475 12.3719 36.2299C12.4836 35.9123 12.5395 35.533 12.5395 35.0919C12.5395 34.4274 12.416 33.9069 12.169 33.5305C11.922 33.1542 11.5162 32.966 10.9516 32.966C10.5753 32.966 10.2695 33.0512 10.0342 33.2218C9.79898 33.3923 9.62549 33.6364 9.51375 33.954C9.40202 34.2715 9.34615 34.6509 9.34615 35.0919ZM19.5605 33.4335V38.25H18.5548L18.3784 37.6325H18.3078C18.2078 37.7972 18.0785 37.9324 17.9197 38.0383C17.7668 38.1383 17.5962 38.2118 17.408 38.2588C17.2198 38.3117 17.0258 38.3382 16.8258 38.3382C16.4847 38.3382 16.1848 38.2765 15.926 38.153C15.6673 38.0295 15.4673 37.8383 15.3262 37.5796C15.185 37.3208 15.1145 36.9856 15.1145 36.5739V33.4335H16.4289V36.2475C16.4289 36.5886 16.4906 36.8474 16.6141 37.0238C16.7376 37.2003 16.9346 37.2885 17.2051 37.2885C17.4757 37.2885 17.6844 37.2267 17.8315 37.1032C17.9844 36.9797 18.0902 36.8003 18.149 36.5651C18.2137 36.3299 18.2461 36.0417 18.2461 35.7006V33.4335H19.5605ZM22.9234 33.3453C23.3704 33.3453 23.7526 33.4306 24.0702 33.6011C24.3937 33.7717 24.6436 34.0187 24.82 34.3421C24.9965 34.6656 25.0847 35.0625 25.0847 35.533V36.1681H21.9795C21.9913 36.5386 22.1001 36.8298 22.3059 37.0415C22.5176 37.2532 22.8087 37.359 23.1792 37.359C23.4909 37.359 23.7732 37.3296 24.0261 37.2708C24.279 37.2061 24.5407 37.1091 24.8112 36.9797V37.9942C24.576 38.1118 24.326 38.1971 24.0614 38.25C23.8026 38.3088 23.488 38.3382 23.1175 38.3382C22.6353 38.3382 22.2089 38.25 21.8384 38.0736C21.4679 37.8913 21.1768 37.6178 20.9651 37.2532C20.7534 36.8886 20.6475 36.4298 20.6475 35.877C20.6475 35.3125 20.7416 34.8449 20.9298 34.4744C21.1239 34.0981 21.3914 33.8158 21.7325 33.6276C22.0736 33.4394 22.4706 33.3453 22.9234 33.3453ZM22.9322 34.2804C22.6794 34.2804 22.4676 34.3627 22.2971 34.5274C22.1324 34.692 22.0354 34.9478 22.006 35.2948H23.8497C23.8497 35.1008 23.8144 34.9273 23.7438 34.7744C23.6791 34.6215 23.5791 34.5009 23.4439 34.4127C23.3086 34.3245 23.1381 34.2804 22.9322 34.2804ZM28.841 33.3453C28.9057 33.3453 28.9822 33.3482 29.0704 33.3541C29.1586 33.36 29.2292 33.3688 29.2821 33.3806L29.185 34.6156C29.1439 34.6038 29.0821 34.595 28.9998 34.5891C28.9233 34.5773 28.8557 34.5715 28.7969 34.5715C28.6264 34.5715 28.4617 34.595 28.3029 34.642C28.1441 34.6832 28 34.7508 27.8707 34.8449C27.7472 34.939 27.6472 35.0655 27.5707 35.2243C27.5002 35.3772 27.4649 35.5683 27.4649 35.7976V38.25H26.1505V33.4335H27.1473L27.3414 34.2451H27.4031C27.4972 34.0804 27.6148 33.9304 27.756 33.7952C27.8971 33.6599 28.0588 33.5511 28.2412 33.4688C28.4293 33.3865 28.6293 33.3453 28.841 33.3453ZM29.4682 33.4335H30.9061L31.8147 36.1417C31.8441 36.2299 31.8677 36.3181 31.8853 36.4063C31.9088 36.4945 31.9265 36.5857 31.9382 36.6798C31.9559 36.7739 31.9676 36.8739 31.9735 36.9797H32C32.0176 36.8268 32.0411 36.6827 32.0705 36.5475C32.1058 36.4063 32.1441 36.2711 32.1852 36.1417L33.0762 33.4335H34.4876L32.4499 38.8675C32.3264 39.1968 32.1646 39.4732 31.9647 39.6967C31.7706 39.9202 31.5442 40.0878 31.2854 40.1995C31.0267 40.3113 30.7444 40.3671 30.4386 40.3671C30.2916 40.3671 30.1622 40.3583 30.0504 40.3407C29.9446 40.3289 29.8505 40.3142 29.7682 40.2966V39.2556C29.8328 39.2674 29.9093 39.2792 29.9975 39.2909C30.0916 39.3027 30.1886 39.3086 30.2886 39.3086C30.4709 39.3086 30.6268 39.2703 30.7562 39.1939C30.8914 39.1174 31.0032 39.0116 31.0914 38.8763C31.1796 38.7469 31.2502 38.6058 31.3031 38.4529L31.3825 38.2147L29.4682 33.4335Z" fill="white"/>
<path d="M26.9908 12.0081V0.968036L38.0309 12.0081H26.9908Z" fill="#FFDD7A" stroke="#FFDD7A" stroke-width="0.801947"/>
</svg>
