<svg width="44" height="57" viewBox="0 0 44 57" fill="none" xmlns="http://www.w3.org/2000/svg">
<path fill-rule="evenodd" clip-rule="evenodd" d="M30.1421 0L30 0.14209L44 14.1421V52C44 54.7614 41.7614 57 39 57H5C2.23858 57 0 54.7614 0 52V5C0 2.23858 2.23858 0 5 0H30.1421Z" fill="#F9C148"/>
<path fill-rule="evenodd" clip-rule="evenodd" d="M2.21857 56.1555L36.4129 6.55493L43.9999 14.142V51.9999C43.9999 54.7613 41.7613 56.9999 38.9999 56.9999H4.9999C3.9705 56.9999 3.01377 56.6888 2.21857 56.1555Z" fill="#E8B43E"/>
<path d="M15.8859 32.528C14.9792 32.528 14.2752 32.4533 13.7739 32.304C13.2832 32.1547 12.9419 31.92 12.7499 31.6C12.5579 31.28 12.4619 30.864 12.4619 30.352V27.888C12.4619 27.5467 12.3819 27.2747 12.2219 27.072C12.0725 26.8693 11.8485 26.7253 11.5499 26.64C11.2619 26.544 10.8992 26.496 10.4619 26.496V24.624C10.8992 24.624 11.2619 24.5813 11.5499 24.496C11.8485 24.4 12.0725 24.2507 12.2219 24.048C12.3819 23.8347 12.4619 23.5627 12.4619 23.232V20.752C12.4619 20.368 12.5099 20.0373 12.6059 19.76C12.7125 19.4827 12.8939 19.2587 13.1499 19.088C13.4059 18.9173 13.7525 18.7893 14.1899 18.704C14.6379 18.6187 15.2032 18.576 15.8859 18.576V20.336C15.6085 20.336 15.3685 20.368 15.1659 20.432C14.9632 20.496 14.8032 20.608 14.6859 20.768C14.5792 20.9173 14.5259 21.1413 14.5259 21.44V23.776C14.5259 24.2667 14.3712 24.656 14.0619 24.944C13.7525 25.232 13.2992 25.4187 12.7019 25.504V25.6C13.2992 25.6853 13.7525 25.872 14.0619 26.16C14.3712 26.448 14.5259 26.8373 14.5259 27.328V29.664C14.5259 29.9627 14.5792 30.1867 14.6859 30.336C14.8032 30.496 14.9632 30.6027 15.1659 30.656C15.3685 30.72 15.6085 30.7573 15.8859 30.768V32.528ZM23.3028 28.32C23.2068 28.6933 23.0841 29.0987 22.9348 29.536C22.7854 29.9627 22.6254 30.3893 22.4548 30.816C22.2841 31.2533 22.1081 31.6693 21.9268 32.064H20.2148C20.2894 31.744 20.3641 31.4133 20.4388 31.072C20.5134 30.7307 20.5828 30.384 20.6468 30.032C20.7214 29.6907 20.7854 29.36 20.8388 29.04C20.9028 28.72 20.9561 28.4213 20.9988 28.144H23.1908L23.3028 28.32ZM20.6308 22.432C20.6308 21.9413 20.7641 21.6 21.0308 21.408C21.2974 21.2053 21.6228 21.104 22.0068 21.104C22.3801 21.104 22.7001 21.2053 22.9668 21.408C23.2334 21.6 23.3668 21.9413 23.3668 22.432C23.3668 22.9013 23.2334 23.2427 22.9668 23.456C22.7001 23.6587 22.3801 23.76 22.0068 23.76C21.6228 23.76 21.2974 23.6587 21.0308 23.456C20.7641 23.2427 20.6308 22.9013 20.6308 22.432ZM28.1213 30.768C28.3986 30.7573 28.6386 30.72 28.8413 30.656C29.0439 30.6027 29.1986 30.496 29.3053 30.336C29.4226 30.1867 29.4813 29.9627 29.4813 29.664V27.328C29.4813 26.8373 29.6359 26.448 29.9453 26.16C30.2653 25.872 30.7186 25.6853 31.3053 25.6V25.504C30.7186 25.4187 30.2653 25.232 29.9453 24.944C29.6359 24.656 29.4813 24.2667 29.4813 23.776V21.44C29.4813 21.1413 29.4226 20.9173 29.3053 20.768C29.1986 20.608 29.0439 20.496 28.8413 20.432C28.6386 20.368 28.3986 20.336 28.1213 20.336V18.576C28.8039 18.576 29.3639 18.6187 29.8013 18.704C30.2493 18.7893 30.6013 18.9173 30.8573 19.088C31.1133 19.2587 31.2893 19.4827 31.3853 19.76C31.4919 20.0373 31.5453 20.368 31.5453 20.752V23.232C31.5453 23.5627 31.6199 23.8347 31.7693 24.048C31.9293 24.2507 32.1586 24.4 32.4573 24.496C32.7559 24.5813 33.1186 24.624 33.5453 24.624V26.496C33.1186 26.496 32.7559 26.544 32.4573 26.64C32.1586 26.7253 31.9293 26.8693 31.7693 27.072C31.6199 27.2747 31.5453 27.5467 31.5453 27.888V30.352C31.5453 30.864 31.4493 31.28 31.2573 31.6C31.0653 31.92 30.7239 32.1547 30.2333 32.304C29.7426 32.4533 29.0386 32.528 28.1213 32.528V30.768Z" fill="white"/>
<path d="M3.47359 47.31C3.26093 47.31 3.07393 47.2953 2.91259 47.266C2.75126 47.244 2.61193 47.2183 2.49459 47.189V45.803C2.61193 45.8323 2.73659 45.858 2.86859 45.88C2.99326 45.902 3.12893 45.913 3.27559 45.913C3.46626 45.913 3.63859 45.8763 3.79259 45.803C3.95393 45.7297 4.07859 45.5903 4.16659 45.385C4.25459 45.1797 4.29859 44.8863 4.29859 44.505V37.146H5.95959V44.494C5.95959 45.1687 5.85326 45.7113 5.64059 46.122C5.43526 46.54 5.14559 46.8407 4.77159 47.024C4.39759 47.2147 3.96493 47.31 3.47359 47.31ZM15.0682 41.062C15.0682 41.6487 14.9985 42.184 14.8592 42.668C14.7199 43.152 14.5072 43.5737 14.2212 43.933C13.9352 44.285 13.5722 44.56 13.1322 44.758L15.0242 46.87H12.8902L11.4492 45.11C11.4272 45.11 11.4052 45.11 11.3832 45.11C11.3685 45.11 11.3502 45.11 11.3282 45.11C10.6902 45.11 10.1329 45.0147 9.6562 44.824C9.18686 44.626 8.7982 44.351 8.4902 43.999C8.18953 43.6397 7.9622 43.2107 7.8082 42.712C7.66153 42.2133 7.5882 41.6597 7.5882 41.051C7.5882 40.237 7.7202 39.5293 7.9842 38.928C8.25553 38.3267 8.6662 37.861 9.2162 37.531C9.77353 37.1937 10.4812 37.025 11.3392 37.025C12.1899 37.025 12.8902 37.1937 13.4402 37.531C13.9902 37.861 14.3972 38.3303 14.6612 38.939C14.9325 39.5403 15.0682 40.248 15.0682 41.062ZM9.3372 41.062C9.3372 41.612 9.40686 42.085 9.5462 42.481C9.68553 42.877 9.90186 43.1813 10.1952 43.394C10.4885 43.6067 10.8662 43.713 11.3282 43.713C11.8049 43.713 12.1862 43.6067 12.4722 43.394C12.7655 43.1813 12.9782 42.877 13.1102 42.481C13.2495 42.085 13.3192 41.612 13.3192 41.062C13.3192 40.2333 13.1652 39.5843 12.8572 39.115C12.5492 38.6457 12.0432 38.411 11.3392 38.411C10.8699 38.411 10.4885 38.5173 10.1952 38.73C9.90186 38.9427 9.68553 39.247 9.5462 39.643C9.40686 40.039 9.3372 40.512 9.3372 41.062ZM22.0741 38.994V45H20.8201L20.6001 44.23H20.5121C20.3874 44.4353 20.2261 44.604 20.0281 44.736C19.8374 44.8607 19.6247 44.9523 19.3901 45.011C19.1554 45.077 18.9134 45.11 18.6641 45.11C18.2387 45.11 17.8647 45.033 17.5421 44.879C17.2194 44.725 16.9701 44.4867 16.7941 44.164C16.6181 43.8413 16.5301 43.4233 16.5301 42.91V38.994H18.1691V42.503C18.1691 42.9283 18.2461 43.251 18.4001 43.471C18.5541 43.691 18.7997 43.801 19.1371 43.801C19.4744 43.801 19.7347 43.724 19.9181 43.57C20.1087 43.416 20.2407 43.1923 20.3141 42.899C20.3947 42.6057 20.4351 42.2463 20.4351 41.821V38.994H22.0741ZM26.2676 38.884C26.8249 38.884 27.3016 38.9903 27.6976 39.203C28.1009 39.4157 28.4126 39.7237 28.6326 40.127C28.8526 40.5303 28.9626 41.0253 28.9626 41.612V42.404H25.0906C25.1052 42.866 25.2409 43.229 25.4976 43.493C25.7616 43.757 26.1246 43.889 26.5866 43.889C26.9752 43.889 27.3272 43.8523 27.6426 43.779C27.9579 43.6983 28.2842 43.5773 28.6216 43.416V44.681C28.3282 44.8277 28.0166 44.934 27.6866 45C27.3639 45.0733 26.9716 45.11 26.5096 45.11C25.9082 45.11 25.3766 45 24.9146 44.78C24.4526 44.5527 24.0896 44.2117 23.8256 43.757C23.5616 43.3023 23.4296 42.7303 23.4296 42.041C23.4296 41.337 23.5469 40.754 23.7816 40.292C24.0236 39.8227 24.3572 39.4707 24.7826 39.236C25.2079 39.0013 25.7029 38.884 26.2676 38.884ZM26.2786 40.05C25.9632 40.05 25.6992 40.1527 25.4866 40.358C25.2812 40.5633 25.1602 40.8823 25.1236 41.315H27.4226C27.4226 41.073 27.3786 40.8567 27.2906 40.666C27.2099 40.4753 27.0852 40.325 26.9166 40.215C26.7479 40.105 26.5352 40.05 26.2786 40.05ZM33.6466 38.884C33.7273 38.884 33.8226 38.8877 33.9326 38.895C34.0426 38.9023 34.1306 38.9133 34.1966 38.928L34.0756 40.468C34.0243 40.4533 33.9473 40.4423 33.8446 40.435C33.7493 40.4203 33.6649 40.413 33.5916 40.413C33.3789 40.413 33.1736 40.4423 32.9756 40.501C32.7776 40.5523 32.5979 40.6367 32.4366 40.754C32.2826 40.8713 32.1579 41.029 32.0626 41.227C31.9746 41.4177 31.9306 41.656 31.9306 41.942V45H30.2916V38.994H31.5346L31.7766 40.006H31.8536C31.9709 39.8007 32.1176 39.6137 32.2936 39.445C32.4696 39.2763 32.6713 39.1407 32.8986 39.038C33.1333 38.9353 33.3826 38.884 33.6466 38.884ZM34.4287 38.994H36.2217L37.3547 42.371C37.3914 42.481 37.4207 42.591 37.4427 42.701C37.472 42.811 37.494 42.9247 37.5087 43.042C37.5307 43.1593 37.5454 43.284 37.5527 43.416H37.5857C37.6077 43.2253 37.637 43.0457 37.6737 42.877C37.7177 42.701 37.7654 42.5323 37.8167 42.371L38.9277 38.994H40.6877L38.1467 45.77C37.9927 46.1807 37.791 46.5253 37.5417 46.804C37.2997 47.0827 37.0174 47.2917 36.6947 47.431C36.372 47.5703 36.02 47.64 35.6387 47.64C35.4554 47.64 35.294 47.629 35.1547 47.607C35.0227 47.5923 34.9054 47.574 34.8027 47.552V46.254C34.8834 46.2687 34.9787 46.2833 35.0887 46.298C35.206 46.3127 35.327 46.32 35.4517 46.32C35.679 46.32 35.8734 46.2723 36.0347 46.177C36.2034 46.0817 36.3427 45.9497 36.4527 45.781C36.5627 45.6197 36.6507 45.4437 36.7167 45.253L36.8157 44.956L34.4287 38.994Z" fill="white"/>
<path d="M42.7929 13.5H30.5V1.20711L42.7929 13.5Z" fill="#FFDD7A" stroke="#FFDD7A"/>
</svg>
