<svg width="16" height="16" viewBox="0 0 16 16" fill="none" xmlns="http://www.w3.org/2000/svg">
<path d="M7.77518 3.275L9.02518 2.025C9.3502 1.69997 9.73606 1.44215 10.1607 1.26625C10.5854 1.09035 11.0405 0.999817 11.5002 0.999817C11.9598 0.999817 12.415 1.09035 12.8396 1.26625C13.2643 1.44215 13.6502 1.69997 13.9752 2.025C14.3002 2.35002 14.558 2.73587 14.7339 3.16054C14.9098 3.5852 15.0004 4.04035 15.0004 4.5C15.0004 4.95965 14.9098 5.41479 14.7339 5.83946C14.558 6.26412 14.3002 6.64997 13.9752 6.975L11.4752 9.475C11.1502 9.80004 10.7643 10.0579 10.3397 10.2338C9.91499 10.4097 9.45984 10.5002 9.00018 10.5002C8.54052 10.5002 8.08537 10.4097 7.6607 10.2338C7.23604 10.0579 6.85019 9.80004 6.52518 9.475C6.39277 9.33273 6.32067 9.14468 6.32402 8.95037C6.32738 8.75605 6.40594 8.5706 6.54318 8.433C6.68078 8.29575 6.86623 8.2172 7.06055 8.21384C7.25486 8.21048 7.44292 8.28259 7.58518 8.415C7.77079 8.60119 7.99132 8.74892 8.23414 8.84971C8.47695 8.95051 8.73727 9.0024 9.00018 9.0024C9.26308 9.0024 9.5234 8.95051 9.76622 8.84971C10.009 8.74892 10.2296 8.60119 10.4152 8.415L12.9152 5.915C13.2722 5.53605 13.4676 5.03292 13.4598 4.51234C13.452 3.99176 13.2418 3.49467 12.8737 3.12652C12.5055 2.75837 12.0084 2.54812 11.4878 2.54037C10.9673 2.53262 10.4641 2.72797 10.0852 3.085L8.83518 4.335C8.69292 4.4674 8.50486 4.53951 8.31055 4.53615C8.11623 4.53279 7.93078 4.45424 7.79318 4.317C7.65594 4.17939 7.57738 3.99394 7.57402 3.79963C7.57067 3.60531 7.64277 3.41726 7.77518 3.275ZM3.08518 12.915C3.27079 13.1012 3.49132 13.2489 3.73414 13.3497C3.97695 13.4505 4.23727 13.5024 4.50018 13.5024C4.76308 13.5024 5.0234 13.4505 5.26622 13.3497C5.50903 13.2489 5.72957 13.1012 5.91518 12.915L7.16518 11.665C7.30744 11.5326 7.49549 11.4605 7.68981 11.4638C7.88413 11.4672 8.06957 11.5458 8.20718 11.683C8.34442 11.8206 8.42298 12.006 8.42633 12.2004C8.42969 12.3947 8.35759 12.5827 8.22518 12.725L6.97518 13.975C6.65016 14.3 6.2643 14.5578 5.83964 14.7337C5.41498 14.9096 4.95983 15.0002 4.50018 15.0002C4.04053 15.0002 3.58538 14.9096 3.16072 14.7337C2.73606 14.5578 2.3502 14.3 2.02518 13.975C1.70016 13.65 1.44234 13.2641 1.26644 12.8395C1.09053 12.4148 1 11.9596 1 11.5C1 11.0403 1.09053 10.5852 1.26644 10.1605C1.44234 9.73587 1.70016 9.35002 2.02518 9.02499L4.52518 6.525C4.85019 6.19995 5.23604 5.94211 5.6607 5.7662C6.08537 5.59029 6.54052 5.49974 7.00018 5.49974C7.45984 5.49974 7.91499 5.59029 8.33965 5.7662C8.76432 5.94211 9.15017 6.19995 9.47518 6.525C9.60759 6.66726 9.67969 6.85531 9.67633 7.04963C9.67298 7.24394 9.59442 7.42939 9.45718 7.567C9.31957 7.70424 9.13413 7.78279 8.93981 7.78615C8.74549 7.78951 8.55744 7.7174 8.41518 7.585C8.22957 7.3988 8.00903 7.25107 7.76622 7.15028C7.5234 7.04948 7.26308 6.99759 7.00018 6.99759C6.73727 6.99759 6.47695 7.04948 6.23414 7.15028C5.99132 7.25107 5.77079 7.3988 5.58518 7.585L3.08518 10.085C2.89899 10.2706 2.75126 10.4911 2.65046 10.734C2.54966 10.9768 2.49777 11.2371 2.49777 11.5C2.49777 11.7629 2.54966 12.0232 2.65046 12.266C2.75126 12.5088 2.89899 12.7294 3.08518 12.915Z" fill="#FF5A36"/>
</svg>
