<svg width="35" height="26" viewBox="0 0 35 26" fill="none" xmlns="http://www.w3.org/2000/svg">
<g clip-path="url(#clip0_780_6854)">
<path d="M33.4872 0H1.51282C0.67654 0 0 0.687729 0 1.53784V24.4637C0 25.3123 0.67654 26.0016 1.51282 26.0016H33.4887C34.3235 26.0016 35.0016 25.3139 35.0016 24.4637V1.53784C35.0016 0.689321 34.325 0 33.4887 0H33.4872ZM31.9759 22.9259H3.02407V3.07409H31.9744V22.9259H31.9759Z" fill="#10BED2"/>
<path d="M33.4095 0H1.58861C0.974711 0 0.423456 0.375704 0.190112 0.951996C-0.0432314 1.52829 0.0883181 2.19055 0.52525 2.62834L16.4365 18.6451C16.7309 18.9412 17.1161 19.0893 17.4998 19.0893C17.8835 19.0893 18.2688 18.9412 18.5632 18.6451L34.4729 2.62993C34.9082 2.19214 35.0398 1.52988 34.808 0.953588C34.5746 0.377296 34.0218 0.00159197 33.4095 0.00159197V0ZM17.4983 15.3895L5.26416 3.07409H29.7339L17.4998 15.3895H17.4983Z" fill="#10BED2"/>
</g>
<defs>
<clipPath id="clip0_780_6854">
<rect width="35" height="26" fill="white"/>
</clipPath>
</defs>
</svg>
