<svg width="354" height="265" viewBox="0 0 354 265" fill="none" xmlns="http://www.w3.org/2000/svg">
<rect width="353.333" height="265" rx="5" fill="#D9D9D9"/>
<path d="M170.565 131.146C171.689 131.146 172.599 130.235 172.599 129.112C172.599 127.989 171.689 127.078 170.565 127.078C169.442 127.078 168.531 127.989 168.531 129.112C168.531 130.235 169.442 131.146 170.565 131.146Z" fill="#A9A9A9"/>
<path d="M174.633 135.213L172.599 132.501L168.531 137.925H184.803L178.701 129.789L174.633 135.213Z" fill="#A9A9A9"/>
<path d="M187.513 121.648H165.817C164.322 121.648 163.105 122.865 163.105 124.36V140.632C163.105 142.128 164.322 143.344 165.817 143.344H187.513C189.009 143.344 190.225 142.128 190.225 140.632V124.36C190.225 122.865 189.009 121.648 187.513 121.648ZM165.817 140.632V124.36H187.513L187.516 140.632H165.817Z" fill="#A9A9A9"/>
</svg>
