<svg width="13" height="9" viewBox="0 0 13 9" fill="none" xmlns="http://www.w3.org/2000/svg">
<path d="M10.9899 0.266614C10.9899 0.266614 9.18401 0 5.89224 0C2.60048 0 1.19554 0.241579 1.19554 0.241579C0.611213 0.342288 0.132812 0.909869 0.132812 1.50306V6.68404C0.132812 7.27723 0.608303 7.86053 1.18913 7.98045C1.18913 7.98045 2.36884 8.22377 6.12446 8.22377C9.88008 8.22377 11.0022 7.98627 11.0022 7.98627C11.5824 7.86344 12.0573 7.27723 12.0573 6.68404V1.50306C12.0573 0.909869 11.5772 0.353352 10.9905 0.266614H10.9899ZM4.80158 6.3074V2.16786L8.19695 4.23792L4.80158 6.30798V6.3074Z" fill="#FF5A36"/>
</svg>
