<svg width="39" height="39" viewBox="0 0 39 39" fill="none" xmlns="http://www.w3.org/2000/svg">
<g clip-path="url(#clip0_780_5728)">
<path d="M13.1855 1.71822V3.32087C13.1855 4.26937 13.9553 5.03908 14.9039 5.03908C15.8524 5.03908 16.6222 4.26937 16.6222 3.32087V1.71822C16.6222 1.24287 16.4303 0.813318 16.1206 0.50151C15.8088 0.191882 15.3792 0 14.906 0C13.9575 0 13.1877 0.769708 13.1877 1.71822H13.1855Z" fill="#242424"/>
<path d="M4.19922 1.71822V3.32087C4.19922 4.26937 4.96897 5.03908 5.91753 5.03908C6.86609 5.03908 7.63584 4.26937 7.63584 3.32087V1.71822C7.63584 1.24287 7.44395 0.813318 7.13212 0.50151C6.82248 0.191882 6.3929 0 5.91753 0C4.96897 0 4.19922 0.769708 4.19922 1.71822Z" fill="#242424"/>
<path d="M22.1719 1.71822V3.32087C22.1719 4.26937 22.9416 5.03908 23.8902 5.03908C24.8387 5.03908 25.6085 4.26937 25.6085 3.32087V1.71822C25.6085 1.24287 25.4166 0.813318 25.1048 0.50151C24.793 0.191882 24.3634 0 23.8902 0C22.9416 0 22.1719 0.769708 22.1719 1.71822Z" fill="#242424"/>
<path d="M22.9464 29.9531H6.87979C6.41532 29.9531 6.03808 29.5759 6.03808 29.1115C6.03808 28.647 6.41532 28.2698 6.87979 28.2698H22.9464C23.4109 28.2698 23.7881 28.647 23.7881 29.1115C23.7881 29.5759 23.4131 29.9531 22.9464 29.9531ZM6.87107 20.0538H22.9377C23.4022 20.0538 23.7794 20.431 23.7794 20.8954C23.7794 21.3599 23.4022 21.7371 22.9377 21.7371H6.87107C6.4066 21.7371 6.02935 21.3599 6.02935 20.8954C6.02935 20.431 6.4066 20.0538 6.87107 20.0538ZM6.87107 11.8355H22.9377C23.4022 11.8355 23.7794 12.2128 23.7794 12.6772C23.7794 13.1416 23.4022 13.5189 22.9377 13.5189H6.87107C6.4066 13.5189 6.02935 13.1438 6.02935 12.6772C6.02935 12.2106 6.4066 11.8355 6.87107 11.8355ZM25.0943 33.2347L25.5893 31.6626L29.8066 18.2614V4.36087C29.8066 3.27717 28.9278 2.39844 27.8441 2.39844H27.2902V3.32078C27.2902 5.19599 25.7638 6.72014 23.8906 6.72014C22.0175 6.72014 20.4911 5.19599 20.4911 3.32078V2.39844H18.3039V3.32078C18.3039 5.19599 16.7775 6.72014 14.9044 6.72014C13.0313 6.72014 11.5048 5.19599 11.5048 3.32078V2.39844H9.31988V3.32078C9.31988 5.19599 7.79346 6.72014 5.92032 6.72014C4.04719 6.72014 2.51859 5.19599 2.51859 3.32078V2.39844H1.96472C0.878781 2.39844 0 3.27717 0 4.36087V34.9181C0 36.0039 0.878781 36.8805 1.96254 36.8805H25.8205L25.1009 33.2718L25.0943 33.2326V33.2347Z" fill="#242424"/>
<path d="M29.8096 23.8651L27.1973 32.1684L29.8096 32.9926L32.9388 33.976L38.0239 17.8274L32.2802 16.022L29.8096 23.8651Z" fill="#10BED2"/>
<path d="M38.2085 13.4754L34.6193 12.3459C34.024 12.1584 33.3894 12.4898 33.2019 13.0829L32.7832 14.4152L38.5269 16.2228L38.9456 14.8927C39.1331 14.2953 38.8017 13.6629 38.2085 13.4754Z" fill="#10BED2"/>
<path d="M26.9316 33.8477L27.5357 36.8807L27.8846 38.636C27.9718 38.9827 28.397 39.1179 28.6696 38.8824L32.1934 35.5048L29.81 34.7547L26.9338 33.8477H26.9316Z" fill="#10BED2"/>
</g>
<defs>
<clipPath id="clip0_780_5728">
<rect width="39" height="39" fill="white"/>
</clipPath>
</defs>
</svg>
