<svg width="48" height="62" viewBox="0 0 48 62" fill="none" xmlns="http://www.w3.org/2000/svg">
<path fill-rule="evenodd" clip-rule="evenodd" d="M32.8823 0L32.7273 0.154291L48 15.3565V56.4654C48 59.4639 45.5579 61.8947 42.5455 61.8947H5.45455C2.44208 61.8947 0 59.4639 0 56.4654V5.42936C0 2.43081 2.44208 0 5.45455 0H32.8823Z" fill="#90CDEE"/>
<path fill-rule="evenodd" clip-rule="evenodd" d="M2.52539 60.4151L39.2327 6.31592L47.9991 15.2228V56.4499C47.9991 59.4571 45.5997 61.8949 42.64 61.8949H6.19821C4.77679 61.8949 3.48462 61.3326 2.52539 60.4151Z" fill="#87BFDE"/>
<path d="M28.9473 28.8237L34.7502 26.4435L28.9473 23.7505V21.7178L37.3736 25.9223V27.1384L28.9473 30.8565V28.8237Z" fill="white"/>
<path d="M28.1115 20.1714L23.49 32.5764H21.1445L25.766 20.1714H28.1115Z" fill="white"/>
<path d="M20.2545 30.8565L11.8281 27.1384V25.9223L20.2545 21.7178V23.7505L14.4516 26.4435L20.2545 28.8237V30.8565Z" fill="white"/>
<path d="M43.7035 41.6191C44.468 41.6191 45.0804 41.8276 45.5408 42.2446C46.0012 42.6529 46.2314 43.3131 46.2314 44.2252V48.8641H44.2899V44.7074C44.2899 44.1948 44.1987 43.8126 44.0162 43.5607C43.8338 43.3001 43.5428 43.1698 43.1432 43.1698C42.5525 43.1698 42.1485 43.3739 41.9314 43.7822C41.7142 44.1818 41.6056 44.7595 41.6056 45.5153V48.8641H39.6641V41.7494H41.1495L41.4101 42.6616H41.5144C41.7402 42.2967 42.0486 42.0318 42.4396 41.8667C42.8392 41.7017 43.2605 41.6191 43.7035 41.6191Z" fill="white"/>
<path d="M38.0591 45.2937C38.0591 46.4752 37.7464 47.3873 37.1209 48.0301C36.5042 48.673 35.6615 48.9944 34.593 48.9944C33.9328 48.9944 33.3421 48.8511 32.8209 48.5644C32.3084 48.2777 31.9044 47.8607 31.6091 47.3135C31.3137 46.7575 31.166 46.0842 31.166 45.2937C31.166 44.1123 31.4744 43.2045 32.0912 42.5704C32.708 41.9362 33.5549 41.6191 34.6321 41.6191C35.301 41.6191 35.8917 41.7625 36.4043 42.0491C36.9168 42.3358 37.3207 42.7528 37.6161 43.3001C37.9115 43.8474 38.0591 44.5119 38.0591 45.2937ZM33.1466 45.2937C33.1466 45.9974 33.2596 46.5316 33.4854 46.8965C33.72 47.2526 34.0979 47.4307 34.6191 47.4307C35.1316 47.4307 35.5008 47.2526 35.7267 46.8965C35.9612 46.5316 36.0785 45.9974 36.0785 45.2937C36.0785 44.5901 35.9612 44.0645 35.7267 43.717C35.5008 43.3609 35.1273 43.1828 34.6061 43.1828C34.0935 43.1828 33.72 43.3609 33.4854 43.717C33.2596 44.0645 33.1466 44.5901 33.1466 45.2937Z" fill="white"/>
<path d="M24.9728 38.9609V40.9807C24.9728 41.3368 24.9598 41.6756 24.9337 41.997C24.9163 42.3098 24.8989 42.5313 24.8816 42.6616H24.9858C25.2117 42.2967 25.5027 42.0318 25.8589 41.8667C26.215 41.7017 26.6103 41.6192 27.0446 41.6192C27.8091 41.6192 28.4259 41.8276 28.895 42.2446C29.3641 42.6529 29.5986 43.3131 29.5986 44.2252V48.8641H27.6571V44.7074C27.6571 43.6823 27.2748 43.1698 26.5104 43.1698C25.9284 43.1698 25.5244 43.3739 25.2986 43.7822C25.0814 44.1818 24.9728 44.7595 24.9728 45.5153V48.8641H23.0312V38.9609H24.9728Z" fill="white"/>
<path d="M20.3797 47.4436C20.5969 47.4436 20.8054 47.4263 21.0052 47.3915C21.205 47.3481 21.4048 47.2916 21.6046 47.2221V48.6685C21.3961 48.7641 21.1355 48.8422 20.8227 48.9031C20.5187 48.9639 20.1842 48.9943 19.8194 48.9943C19.3937 48.9943 19.0115 48.9248 18.6727 48.7858C18.3426 48.6468 18.0777 48.4079 17.8778 48.0691C17.6867 47.7303 17.5912 47.2525 17.5912 46.6358V43.2087H16.666V42.3878L17.7345 41.7363L18.2948 40.2378H19.5327V41.7493H21.5264V43.2087H19.5327V46.6358C19.5327 46.9051 19.6109 47.1092 19.7673 47.2482C19.9236 47.3785 20.1278 47.4436 20.3797 47.4436Z" fill="white"/>
<path d="M8.94727 41.7495H11.0712L12.4134 45.7499C12.4829 45.9497 12.535 46.1495 12.5697 46.3493C12.6045 46.5491 12.6305 46.7619 12.6479 46.9878H12.687C12.7131 46.7619 12.7478 46.5491 12.7913 46.3493C12.8347 46.1495 12.8912 45.9497 12.9607 45.7499L14.2767 41.7495H16.3616L13.3516 49.7763C13.0736 50.5147 12.6783 51.0663 12.1658 51.4312C11.6533 51.8047 11.0582 51.9915 10.3806 51.9915C10.1548 51.9915 9.96364 51.9784 9.80728 51.9524C9.65091 51.935 9.51192 51.9133 9.3903 51.8872V50.3496C9.47717 50.367 9.5901 50.3844 9.72909 50.4017C9.86809 50.4191 10.0114 50.4278 10.1591 50.4278C10.5674 50.4278 10.8888 50.3018 11.1234 50.0499C11.3579 49.8067 11.536 49.5113 11.6576 49.1638L11.7749 48.812L8.94727 41.7495Z" fill="white"/>
<path d="M4.90845 39.5605C6.10725 39.5605 6.98029 39.8212 7.52757 40.3424C8.08354 40.8549 8.36152 41.5629 8.36152 42.4663C8.36152 43.0136 8.24859 43.5218 8.02273 43.9909C7.79687 44.46 7.41898 44.8379 6.88908 45.1246C6.36786 45.4112 5.65553 45.5546 4.75208 45.5546H3.9051V48.8643H1.9375V39.5605H4.90845ZM4.8042 41.1763H3.9051V43.9388H4.55662C5.11259 43.9388 5.55128 43.8302 5.8727 43.613C6.20281 43.3872 6.36786 43.0267 6.36786 42.5315C6.36786 41.628 5.84664 41.1763 4.8042 41.1763Z" fill="white"/>
<path d="M32.8418 15.1579V0L47.9997 15.1579H32.8418Z" fill="#CBE0EB"/>
<path fill-rule="evenodd" clip-rule="evenodd" d="M32.8418 15.1579V0L47.9997 15.1579H32.8418ZM45.3858 14.0752L33.9245 2.61388V14.0752H45.3858Z" fill="#CCE2EE"/>
</svg>
