<svg width="44" height="57" viewBox="0 0 44 57" fill="none" xmlns="http://www.w3.org/2000/svg">
<path fill-rule="evenodd" clip-rule="evenodd" d="M30.1421 0L30 0.14209L44 14.1421V52C44 54.7614 41.7614 57 39 57H5C2.23858 57 0 54.7614 0 52V5C0 2.23858 2.23858 0 5 0H30.1421Z" fill="#90CDEE"/>
<path fill-rule="evenodd" clip-rule="evenodd" d="M1.57324 55.639L35.8209 5.96094L44 14.14V51.9979C44 54.7593 41.7614 56.9979 39 56.9979H4.99996C3.67378 56.9979 2.4682 56.4816 1.57324 55.639Z" fill="#87BFDE"/>
<path d="M18.448 28.416L10.688 24.992V23.872L18.448 20V21.872L13.104 24.352L18.448 26.544V28.416ZM25.6843 18.576L21.4283 30H19.2683L23.5243 18.576H25.6843ZM26.4536 26.544L31.7976 24.352L26.4536 21.872V20L34.2136 23.872V24.992L26.4536 28.416V26.544Z" fill="white"/>
<path d="M5.89351 37.146C6.90551 37.146 7.64251 37.366 8.10451 37.806C8.57384 38.2387 8.80851 38.8363 8.80851 39.599C8.80851 39.9437 8.75717 40.2737 8.65451 40.589C8.55184 40.897 8.37951 41.1757 8.13751 41.425C7.90284 41.667 7.59117 41.8577 7.20251 41.997C6.81384 42.1363 6.33351 42.206 5.76151 42.206H5.04651V45H3.38551V37.146H5.89351ZM5.80551 38.51H5.04651V40.842H5.59651C5.91184 40.842 6.18317 40.8017 6.41051 40.721C6.63784 40.6403 6.81384 40.512 6.93851 40.336C7.06317 40.16 7.12551 39.9327 7.12551 39.654C7.12551 39.2653 7.01917 38.9793 6.80651 38.796C6.59384 38.6053 6.26017 38.51 5.80551 38.51ZM9.30273 38.994H11.0957L12.2287 42.371C12.2654 42.481 12.2947 42.591 12.3167 42.701C12.3461 42.811 12.3681 42.9247 12.3827 43.042C12.4047 43.1593 12.4194 43.284 12.4267 43.416H12.4597C12.4817 43.2253 12.5111 43.0457 12.5477 42.877C12.5917 42.701 12.6394 42.5323 12.6907 42.371L13.8017 38.994H15.5617L13.0207 45.77C12.8667 46.1807 12.6651 46.5253 12.4157 46.804C12.1737 47.0827 11.8914 47.2917 11.5687 47.431C11.2461 47.5703 10.8941 47.64 10.5127 47.64C10.3294 47.64 10.1681 47.629 10.0287 47.607C9.89673 47.5923 9.7794 47.574 9.67673 47.552V46.254C9.7574 46.2687 9.85273 46.2833 9.96273 46.298C10.0801 46.3127 10.2011 46.32 10.3257 46.32C10.5531 46.32 10.7474 46.2723 10.9087 46.177C11.0774 46.0817 11.2167 45.9497 11.3267 45.781C11.4367 45.6197 11.5247 45.4437 11.5907 45.253L11.6897 44.956L9.30273 38.994ZM18.9534 43.801C19.1368 43.801 19.3128 43.7827 19.4814 43.746C19.6501 43.7093 19.8188 43.6653 19.9874 43.614V44.835C19.8114 44.9083 19.5914 44.9707 19.3274 45.022C19.0708 45.0807 18.7884 45.11 18.4804 45.11C18.1211 45.11 17.7984 45.0513 17.5124 44.934C17.2338 44.8167 17.0101 44.615 16.8414 44.329C16.6801 44.0357 16.5994 43.6323 16.5994 43.119V40.226H15.8184V39.533L16.7204 38.983L17.1934 37.718H18.2384V38.994H19.9214V40.226H18.2384V43.119C18.2384 43.3463 18.3044 43.5187 18.4364 43.636C18.5684 43.746 18.7408 43.801 18.9534 43.801ZM22.832 38.345C22.832 38.6383 22.821 38.9207 22.799 39.192C22.7843 39.4633 22.7696 39.654 22.755 39.764H22.843C22.975 39.5587 23.129 39.3937 23.305 39.269C23.481 39.137 23.6753 39.0417 23.888 38.983C24.108 38.917 24.339 38.884 24.581 38.884C25.0136 38.884 25.3913 38.961 25.714 39.115C26.0366 39.269 26.286 39.5073 26.462 39.83C26.6453 40.1527 26.737 40.5707 26.737 41.084V45H25.098V41.491C25.098 41.0583 25.0173 40.7357 24.856 40.523C24.702 40.303 24.46 40.193 24.13 40.193C23.8 40.193 23.5396 40.27 23.349 40.424C23.1656 40.578 23.0336 40.8017 22.953 41.095C22.8723 41.3883 22.832 41.7477 22.832 42.173V45H21.193V36.64H22.832V38.345ZM33.8785 41.986C33.8785 42.4847 33.8088 42.9283 33.6695 43.317C33.5375 43.7057 33.3431 44.0357 33.0865 44.307C32.8371 44.571 32.5328 44.7727 32.1735 44.912C31.8141 45.044 31.4071 45.11 30.9525 45.11C30.5345 45.11 30.1458 45.044 29.7865 44.912C29.4345 44.7727 29.1301 44.571 28.8735 44.307C28.6168 44.0357 28.4151 43.7057 28.2685 43.317C28.1291 42.9283 28.0595 42.4847 28.0595 41.986C28.0595 41.3187 28.1768 40.7577 28.4115 40.303C28.6461 39.841 28.9835 39.489 29.4235 39.247C29.8635 39.005 30.3841 38.884 30.9855 38.884C31.5501 38.884 32.0488 39.005 32.4815 39.247C32.9141 39.489 33.2551 39.841 33.5045 40.303C33.7538 40.7577 33.8785 41.3187 33.8785 41.986ZM29.7315 41.986C29.7315 42.382 29.7718 42.7157 29.8525 42.987C29.9405 43.251 30.0761 43.4527 30.2595 43.592C30.4428 43.724 30.6811 43.79 30.9745 43.79C31.2678 43.79 31.5025 43.724 31.6785 43.592C31.8618 43.4527 31.9938 43.251 32.0745 42.987C32.1625 42.7157 32.2065 42.382 32.2065 41.986C32.2065 41.59 32.1625 41.26 32.0745 40.996C31.9938 40.732 31.8618 40.534 31.6785 40.402C31.4951 40.27 31.2568 40.204 30.9635 40.204C30.5308 40.204 30.2155 40.3543 30.0175 40.655C29.8268 40.9483 29.7315 41.392 29.7315 41.986ZM38.643 38.884C39.2883 38.884 39.8053 39.06 40.194 39.412C40.5827 39.7567 40.777 40.314 40.777 41.084V45H39.138V41.491C39.138 41.0583 39.061 40.7357 38.907 40.523C38.753 40.303 38.5073 40.193 38.17 40.193C37.6713 40.193 37.3303 40.3653 37.147 40.71C36.9637 41.0473 36.872 41.535 36.872 42.173V45H35.233V38.994H36.487L36.707 39.764H36.795C36.927 39.5587 37.0883 39.3937 37.279 39.269C37.4697 39.137 37.6823 39.0417 37.917 38.983C38.1517 38.917 38.3937 38.884 38.643 38.884Z" fill="white"/>
<path d="M30.5 13.5V1.20711L42.7929 13.5H30.5Z" fill="#CBE0EB" stroke="#CCE2EE"/>
</svg>
