<svg width="39" height="50" viewBox="0 0 39 50" fill="none" xmlns="http://www.w3.org/2000/svg">
<path fill-rule="evenodd" clip-rule="evenodd" d="M26.7169 0L26.5909 0.12464L39 12.4053V45.614C39 48.0363 37.0158 50 34.5682 50H4.43182C1.98419 50 0 48.0363 0 45.614V4.38597C0 1.96366 1.98419 0 4.43182 0H26.7169Z" fill="#90CDEE"/>
<path fill-rule="evenodd" clip-rule="evenodd" d="M2.05078 48.8046L31.8754 5.10205L38.9981 12.2973V45.6014C38.9981 48.0307 37.0487 50 34.6439 50H5.03495C3.88004 50 2.83015 49.5458 2.05078 48.8046Z" fill="#87BFDE"/>
<path d="M23.5195 23.2843L28.2344 21.3615L23.5195 19.1861V17.5439L30.366 20.9404V21.9229L23.5195 24.9264V23.2843Z" fill="white"/>
<path d="M22.8403 16.2949L19.0854 26.316H17.1797L20.9346 16.2949H22.8403Z" fill="white"/>
<path d="M16.4558 24.9264L9.60938 21.9229V20.9404L16.4558 17.5439V19.1861L11.7409 21.3615L16.4558 23.2843V24.9264Z" fill="white"/>
<path d="M35.5086 33.6211C36.1297 33.6211 36.6273 33.7895 37.0014 34.1264C37.3755 34.4562 37.5625 34.9895 37.5625 35.7264V39.4737H35.985V36.1158C35.985 35.7018 35.9109 35.393 35.7627 35.1895C35.6145 34.979 35.378 34.8737 35.0534 34.8737C34.5734 34.8737 34.2452 35.0386 34.0687 35.3685C33.8923 35.6913 33.8041 36.1579 33.8041 36.7685V39.4737H32.2266V33.7264H33.4335L33.6453 34.4632H33.73C33.9135 34.1685 34.164 33.9544 34.4816 33.8211C34.8063 33.6878 35.1486 33.6211 35.5086 33.6211Z" fill="white"/>
<path d="M30.9249 36.5895C30.9249 37.5439 30.6708 38.2807 30.1626 38.8C29.6615 39.3193 28.9768 39.579 28.1087 39.579C27.5722 39.579 27.0923 39.4632 26.6688 39.2316C26.2524 39 25.9242 38.6632 25.6842 38.2211C25.4442 37.772 25.3242 37.2281 25.3242 36.5895C25.3242 35.6351 25.5748 34.9018 26.0759 34.3895C26.577 33.8772 27.2652 33.6211 28.1404 33.6211C28.6839 33.6211 29.1639 33.7369 29.5803 33.9685C29.9967 34.2 30.3249 34.5369 30.5649 34.979C30.8049 35.4211 30.9249 35.9579 30.9249 36.5895ZM26.9335 36.5895C26.9335 37.1579 27.0252 37.5895 27.2088 37.8843C27.3993 38.172 27.7064 38.3158 28.1298 38.3158C28.5463 38.3158 28.8462 38.172 29.0298 37.8843C29.2203 37.5895 29.3156 37.1579 29.3156 36.5895C29.3156 36.0211 29.2203 35.5965 29.0298 35.3158C28.8462 35.0281 28.5427 34.8843 28.1193 34.8843C27.7028 34.8843 27.3993 35.0281 27.2088 35.3158C27.0252 35.5965 26.9335 36.0211 26.9335 36.5895Z" fill="white"/>
<path d="M20.2923 31.4736V33.1052C20.2923 33.3929 20.2818 33.6666 20.2606 33.9263C20.2465 34.1789 20.2323 34.3578 20.2182 34.4631H20.3029C20.4864 34.1684 20.7229 33.9543 21.0123 33.821C21.3017 33.6877 21.6228 33.621 21.9757 33.621C22.5968 33.621 23.098 33.7894 23.4791 34.1263C23.8603 34.4561 24.0508 34.9894 24.0508 35.7263V39.4736H22.4733V36.1157C22.4733 35.2877 22.1628 34.8736 21.5416 34.8736C21.0687 34.8736 20.7405 35.0385 20.557 35.3684C20.3806 35.6912 20.2923 36.1578 20.2923 36.7684V39.4736H18.7148V31.4736H20.2923Z" fill="white"/>
<path d="M16.5564 38.3264C16.7329 38.3264 16.9023 38.3124 17.0646 38.2843C17.227 38.2492 17.3893 38.2036 17.5516 38.1475V39.3159C17.3822 39.3931 17.1705 39.4563 16.9164 39.5054C16.6694 39.5545 16.3976 39.5791 16.1012 39.5791C15.7553 39.5791 15.4448 39.5229 15.1695 39.4106C14.9013 39.2984 14.686 39.1054 14.5237 38.8317C14.3684 38.558 14.2908 38.172 14.2908 37.6738V34.9054H13.5391V34.2422L14.4072 33.7159L14.8625 32.5054H15.8683V33.7264H17.4881V34.9054H15.8683V37.6738C15.8683 37.8913 15.9318 38.0563 16.0588 38.1685C16.1859 38.2738 16.3517 38.3264 16.5564 38.3264Z" fill="white"/>
<path d="M7.26953 33.7261H8.99525L10.0857 36.9577C10.1422 37.1191 10.1846 37.2805 10.2128 37.4419C10.241 37.6033 10.2622 37.7752 10.2763 37.9577H10.3081C10.3292 37.7752 10.3575 37.6033 10.3928 37.4419C10.4281 37.2805 10.4739 37.1191 10.5304 36.9577L11.5997 33.7261H13.2937L10.848 40.2103C10.6222 40.8068 10.301 41.2524 9.88458 41.5471C9.46815 41.8489 8.98467 41.9998 8.43413 41.9998C8.25062 41.9998 8.09534 41.9892 7.96829 41.9682C7.84124 41.9541 7.72831 41.9366 7.6295 41.9155V40.6734C7.70008 40.6875 7.79184 40.7015 7.90477 40.7155C8.0177 40.7296 8.13416 40.7366 8.25415 40.7366C8.58588 40.7366 8.84703 40.6348 9.0376 40.4313C9.22817 40.2348 9.37287 39.9962 9.47168 39.7155L9.56697 39.4313L7.26953 33.7261Z" fill="white"/>
<path d="M3.98811 31.958C4.96214 31.958 5.67149 32.1685 6.11615 32.5896C6.56787 33.0036 6.79374 33.5756 6.79374 34.3054C6.79374 34.7475 6.70198 35.158 6.51847 35.537C6.33496 35.9159 6.02793 36.2212 5.59738 36.4527C5.17389 36.6843 4.59512 36.8001 3.86107 36.8001H3.17289V39.4738H1.57422V31.958H3.98811ZM3.90341 33.2633H3.17289V35.4948H3.70226C4.15398 35.4948 4.51042 35.4071 4.77157 35.2317C5.03978 35.0492 5.17389 34.758 5.17389 34.358C5.17389 33.6282 4.7504 33.2633 3.90341 33.2633Z" fill="white"/>
<path d="M26.6836 12.2449V0L38.9994 12.2449H26.6836Z" fill="#CBE0EB"/>
<path fill-rule="evenodd" clip-rule="evenodd" d="M26.6836 12.2449V0L38.9994 12.2449H26.6836ZM36.8756 11.3703L27.5633 2.11156V11.3703H36.8756Z" fill="#CCE2EE"/>
</svg>
