<svg width="26" height="24" viewBox="0 0 26 24" fill="none" xmlns="http://www.w3.org/2000/svg">
<g clip-path="url(#clip0_782_5967)">
<path d="M13.0003 1.07484C6.39726 1.07484 1.04492 5.50371 1.04492 10.9661C1.04492 14.8599 3.76383 18.2274 7.71614 19.8416L6.23821 22.9255L15.3189 20.6716C20.8119 19.7782 24.9557 15.7732 24.9557 10.9661C24.9557 5.5026 19.6034 1.07373 13.0003 1.07373V1.07484Z" fill="white"/>
<path d="M22.1083 3.13503C19.6653 1.11361 16.4314 0 13.0005 0C9.56972 0 6.33473 1.11361 3.89172 3.13503C1.38163 5.21096 0 7.99221 0 10.9659C0 13.0908 0.718405 15.1512 2.0784 16.9234C3.15925 18.3329 4.60364 19.5088 6.29903 20.3688L5.30149 22.4503C5.12188 22.8241 5.16949 23.2713 5.42266 23.5962C5.6239 23.8543 5.92576 23.9989 6.23844 23.9989C6.31959 23.9989 6.40181 23.9889 6.48404 23.9689L15.5247 21.7249C21.5976 20.7192 26.0011 16.2003 26.0011 10.9648C26.0011 7.9911 24.6194 5.20985 22.1094 3.1328L22.1083 3.13503ZM15.1558 19.6112C15.1287 19.6156 15.1006 19.6212 15.0735 19.6279L8.16104 21.3433L8.65332 20.3165C8.78207 20.0473 8.79614 19.7358 8.69119 19.4554C8.58624 19.1762 8.3731 18.9537 8.10153 18.8436C4.39266 17.3294 2.08922 14.3112 2.08922 10.967C2.08922 6.1043 6.9839 2.14935 12.9995 2.14935C19.015 2.14935 23.9097 6.10541 23.9097 10.967C23.9097 15.1512 20.2279 18.7868 15.1547 19.6112H15.1558Z" fill="#10BED2"/>
<path d="M18.7882 7.50049H6.88695C6.31028 7.50049 5.8418 7.98109 5.8418 8.57517C5.8418 9.16924 6.30919 9.64984 6.88695 9.64984H18.7882C19.3649 9.64984 19.8334 9.16924 19.8334 8.57517C19.8334 7.98109 19.366 7.50049 18.7882 7.50049Z" fill="#10BED2"/>
<path d="M18.7882 12.2842H6.88695C6.31028 12.2842 5.8418 12.7648 5.8418 13.3589C5.8418 13.9529 6.30919 14.4335 6.88695 14.4335H18.7882C19.3649 14.4335 19.8334 13.9529 19.8334 13.3589C19.8334 12.7648 19.366 12.2842 18.7882 12.2842Z" fill="#10BED2"/>
</g>
<defs>
<clipPath id="clip0_782_5967">
<rect width="26" height="24" fill="white"/>
</clipPath>
</defs>
</svg>
