<svg width="200" height="200" viewBox="0 0 200 200" fill="none" xmlns="http://www.w3.org/2000/svg">
<path d="M0 100C0 44.858 44.858 0 100 0C155.142 0 200 44.858 200 100C200 155.142 155.142 200 100 200C44.858 200 0 155.142 0 100Z" fill="#292737"/>
<mask id="mask0_1539_17780" style="mask-type:alpha" maskUnits="userSpaceOnUse" x="0" y="0" width="200" height="200">
<path d="M0 100C0 44.858 44.858 0 100 0C155.142 0 200 44.858 200 100C200 155.142 155.142 200 100 200C44.858 200 0 155.142 0 100Z" fill="#292737"/>
</mask>
<g mask="url(#mask0_1539_17780)">
<rect x="-63.0625" y="163.246" width="130" height="9" rx="4.5" transform="rotate(-27.8703 -63.0625 163.246)" fill="white"/>
<rect x="-47.1914" y="172.629" width="130" height="9" rx="4.5" transform="rotate(-27.8703 -47.1914 172.629)" fill="white"/>
<rect x="-29.4648" y="181.668" width="130" height="9" rx="4.5" transform="rotate(-27.8703 -29.4648 181.668)" fill="white"/>
</g>
<g clip-path="url(#clip0_1539_17780)">
<path d="M173.365 56.2926L89.3687 38.2259C87.1718 37.7534 85.0052 39.181 84.524 41.4182L71.5469 101.752C71.0666 103.985 72.4537 106.181 74.6505 106.654L158.651 124.721C160.843 125.193 163.014 123.766 163.495 121.529L176.472 61.1954C176.953 58.9623 175.566 56.766 173.369 56.2935L173.365 56.2926ZM156.417 115.772L80.3616 99.4134L91.5986 47.1698L167.65 63.5278L156.413 115.771L156.417 115.772Z" fill="white"/>
<path d="M173.164 56.2486L89.5708 38.2686C87.9581 37.9218 86.2973 38.599 85.3581 39.9838C84.4189 41.3686 84.3896 43.1857 85.2896 44.5847L118.022 95.7262C118.628 96.6718 119.556 97.2791 120.564 97.4959C121.572 97.7127 122.668 97.5407 123.609 96.9278L174.468 63.7706C175.86 62.8644 176.58 61.1959 176.298 59.5483C176.011 57.8999 174.771 56.5988 173.163 56.2528L173.164 56.2486ZM122.654 87.7585L97.4863 48.4355L161.768 62.2618L122.658 87.7594L122.654 87.7585Z" fill="white"/>
</g>
<defs>
<clipPath id="clip0_1539_17780">
<rect width="94.0471" height="69.9885" fill="white" transform="translate(85.3945 37.3711) rotate(12.1388)"/>
</clipPath>
</defs>
</svg>
