<svg width="22" height="24" viewBox="0 0 22 24" fill="none" xmlns="http://www.w3.org/2000/svg">
<path d="M20.2895 12.0886C20.2895 11.1113 20.1438 10.167 19.8744 9.28068L22 7.38625L20.0525 4.12094L17.3752 5.20583C16.2627 4.13631 14.8899 3.34568 13.3656 2.94387L12.8718 0H9.12936L8.63091 2.97105C7.34604 3.32559 6.17221 3.95549 5.173 4.79694L2.51306 3.48986L0.344633 6.60745L2.4078 8.72524C2.01806 9.77113 1.80296 10.9045 1.80296 12.091C1.80296 12.9927 1.92674 13.8649 2.15804 14.691L0 16.6138L1.94752 19.8791L4.56008 18.8202C5.68419 19.9523 7.09046 20.7914 8.66214 21.2192L9.12823 24H12.8706L13.3332 21.2452C14.7118 20.886 15.9666 20.2111 17.019 19.2988L19.4869 20.5113L21.6554 17.3937L19.7078 15.3953C20.0837 14.3671 20.2895 13.2539 20.2895 12.0922V12.0886ZM11.0503 16.9636C8.42047 16.9636 6.28788 14.7843 6.28788 12.0969C6.28788 9.40949 8.42047 7.23026 11.0503 7.23026C13.6802 7.23026 15.8128 9.40949 15.8128 12.0969C15.8128 14.7843 13.6802 16.9636 11.0503 16.9636Z" fill="#10BED2"/>
</svg>
