<svg width="35" height="35" viewBox="0 0 35 35" fill="none" xmlns="http://www.w3.org/2000/svg">
<path d="M33.9401 5.07709L29.9222 1.05899C28.5106 -0.352672 26.2151 -0.352672 24.8035 1.05899L21.4873 4.37536L30.6239 13.5125L33.9401 10.1961C34.6236 9.51258 34.9999 8.60306 34.9999 7.63704C34.9999 6.67102 34.6236 5.76151 33.9401 5.07709Z" fill="#10BED2"/>
<path d="M9.55583 16.7264L8.47231 24.9203C8.41399 25.3623 8.56435 25.8061 8.87966 26.1214C9.15031 26.3921 9.51574 26.5416 9.89301 26.5416C9.95589 26.5416 10.0179 26.5379 10.0807 26.5288L18.2742 25.4452C18.5867 25.4042 18.8765 25.2611 19.0998 25.0378L28.5982 15.5389L19.4616 6.40186L9.96318 15.9007C9.73992 16.124 9.59684 16.4138 9.55583 16.7264Z" fill="#10BED2"/>
<path d="M31.7822 21.2642C30.9912 21.2642 30.3488 21.9058 30.3488 22.6968V29.1938C30.3488 30.815 29.0301 32.1337 27.4089 32.1337H5.80584C4.18465 32.1337 2.86601 30.815 2.86601 29.1938V7.59137C2.86601 5.9701 4.18465 4.65139 5.80584 4.65139H12.3024C13.0934 4.65139 13.7359 4.0098 13.7359 3.21876C13.7359 2.42772 13.0944 1.78613 12.3024 1.78613H5.80584C2.60447 1.78431 0 4.38892 0 7.59137V29.1947C0 32.3962 2.60447 35.0008 5.80584 35.0008H27.4089C30.6103 35.0008 33.2148 32.3962 33.2148 29.1947V22.6977C33.2148 21.9067 32.5732 21.2651 31.7813 21.2651L31.7822 21.2642Z" fill="#242424"/>
</svg>
