<svg width="25" height="17" viewBox="0 0 25 17" fill="none" xmlns="http://www.w3.org/2000/svg">
<path d="M22.2203 1.21939C22.2203 1.21939 18.6828 0.697144 12.2348 0.697144C5.78682 0.697144 3.03481 1.17035 3.03481 1.17035C1.89022 1.36762 0.953125 2.47941 0.953125 3.64137V13.79C0.953125 14.9519 1.88452 16.0945 3.02227 16.3294C3.02227 16.3294 5.33309 16.806 12.6897 16.806C20.0462 16.806 22.2442 16.3408 22.2442 16.3408C23.3808 16.1002 24.3111 14.9519 24.3111 13.79V3.64137C24.3111 2.47941 23.3705 1.38929 22.2214 1.21939H22.2203ZM10.0984 13.0522V4.94358L16.7493 8.99845L10.0984 13.0533V13.0522Z" fill="#FF5A36"/>
</svg>
